<svg width="323" height="304" viewBox="0 0 323 304" fill="none" xmlns="http://www.w3.org/2000/svg">
<g clip-path="url(#clip0_2256_14979)">
<rect width="323" height="304" rx="10" fill="#05160D"/>
<g filter="url(#filter0_f_2256_14979)">
<path d="M161.499 303.999C211.288 303.999 251.649 247.855 251.649 178.598C251.649 109.341 211.288 53.1973 161.499 53.1973C111.711 53.1973 71.3496 109.341 71.3496 178.598C71.3496 247.855 111.711 303.999 161.499 303.999Z" fill="#176034"/>
</g>
<g opacity="0.17">
<rect opacity="0.6" width="89.6449" height="89.6449" transform="matrix(0.912365 0.409378 -0.780855 0.624713 274.488 150.336)" fill="url(#paint0_linear_2256_14979)"/>
<rect opacity="0.6" width="89.6449" height="89.6449" transform="matrix(0.912365 0.409378 -0.780855 0.624713 272.129 131.795)" fill="url(#paint1_linear_2256_14979)"/>
<rect opacity="0.6" width="89.6449" height="89.6449" transform="matrix(0.912365 0.409378 -0.780855 0.624713 269.775 113.254)" fill="url(#paint2_linear_2256_14979)"/>
<rect opacity="0.6" width="89.6449" height="89.6449" transform="matrix(0.912365 0.409378 -0.780855 0.624713 267.418 94.7129)" fill="url(#paint3_linear_2256_14979)"/>
<rect opacity="0.6" width="89.6449" height="89.6449" transform="matrix(0.912365 0.409378 -0.780855 0.624713 265.057 76.1738)" fill="url(#paint4_linear_2256_14979)"/>
</g>
</g>
<defs>
<filter id="filter0_f_2256_14979" x="-48.3897" y="-66.542" width="419.778" height="490.28" filterUnits="userSpaceOnUse" color-interpolation-filters="sRGB">
<feFlood flood-opacity="0" result="BackgroundImageFix"/>
<feBlend mode="normal" in="SourceGraphic" in2="BackgroundImageFix" result="shape"/>
<feGaussianBlur stdDeviation="59.8696" result="effect1_foregroundBlur_2256_14979"/>
</filter>
<linearGradient id="paint0_linear_2256_14979" x1="62.8478" y1="85.1587" x2="9.00014" y2="94.0188" gradientUnits="userSpaceOnUse">
<stop offset="0.625" stop-color="#F7F7F7" stop-opacity="0"/>
<stop offset="1" stop-color="#73AF5E"/>
</linearGradient>
<linearGradient id="paint1_linear_2256_14979" x1="62.8478" y1="85.1587" x2="9.00014" y2="94.0188" gradientUnits="userSpaceOnUse">
<stop offset="0.625" stop-color="#F7F7F7" stop-opacity="0"/>
<stop offset="1" stop-color="#73AF5E"/>
</linearGradient>
<linearGradient id="paint2_linear_2256_14979" x1="62.8478" y1="85.1587" x2="9.00014" y2="94.0188" gradientUnits="userSpaceOnUse">
<stop offset="0.625" stop-color="#F7F7F7" stop-opacity="0"/>
<stop offset="1" stop-color="#73AF5E"/>
</linearGradient>
<linearGradient id="paint3_linear_2256_14979" x1="62.8478" y1="85.1587" x2="9.00014" y2="94.0188" gradientUnits="userSpaceOnUse">
<stop offset="0.625" stop-color="#F7F7F7" stop-opacity="0"/>
<stop offset="1" stop-color="#73AF5E"/>
</linearGradient>
<linearGradient id="paint4_linear_2256_14979" x1="62.8478" y1="85.1587" x2="9.00014" y2="94.0188" gradientUnits="userSpaceOnUse">
<stop offset="0.625" stop-color="#F7F7F7" stop-opacity="0"/>
<stop offset="1" stop-color="#73AF5E"/>
</linearGradient>
<clipPath id="clip0_2256_14979">
<rect width="323" height="304" rx="10" fill="white"/>
</clipPath>
</defs>
</svg>
