<svg xmlns="http://www.w3.org/2000/svg" fill="none" viewBox="16.5 2.5 72 99" style="max-height: 500px" width="72" height="99">
<path stroke-width="1.14398" stroke="url(#paint0_linear_1358_374)" d="M51.6144 44.5938C50.4349 44.5141 49.3496 44.7608 48.5529 45.1943C47.7519 45.6302 47.3034 46.2139 47.2217 46.8097C47.1401 47.4054 47.4219 48.0386 48.0897 48.5736C48.754 49.1056 49.7525 49.4932 50.9319 49.5728C52.1113 49.6524 53.1967 49.4057 53.9934 48.9723C54.7943 48.5365 55.2429 47.9526 55.3246 47.3569C55.4063 46.7611 55.1244 46.128 54.4566 45.593C53.7923 45.0609 52.7938 44.6734 51.6144 44.5938Z"/>
<path stroke-width="1.14398" stroke="url(#paint1_linear_1358_374)" d="M52.1355 38.5228C49.6832 38.3571 47.3982 38.8664 45.6919 39.7948C43.9813 40.7256 42.9123 42.0364 42.7152 43.4733C42.5182 44.9103 43.2118 46.34 44.6381 47.4827C46.0609 48.6224 48.1655 49.4291 50.6178 49.5947C53.07 49.7602 55.3543 49.25 57.0605 48.3216C58.7712 47.3908 59.8402 46.0801 60.0372 44.6431C60.234 43.2061 59.5407 41.7763 58.1143 40.6337C56.6915 39.4941 54.5875 38.6884 52.1355 38.5228Z"/>
<path stroke-width="1.14398" stroke="url(#paint2_linear_1358_374)" d="M52.5148 33.5774C48.9286 33.3353 45.5758 34.0791 43.0591 35.4485C40.538 36.8203 38.9161 38.7788 38.6164 40.9653C38.3167 43.1517 39.3772 45.2905 41.4792 46.9745C43.5778 48.6555 46.6669 49.8354 50.253 50.0776C53.8393 50.3198 57.192 49.5749 59.7088 48.2055C62.2299 46.8338 63.8517 44.8762 64.1514 42.6897C64.4511 40.5032 63.391 38.3636 61.2887 36.6796C59.1901 34.9986 56.1008 33.8196 52.5148 33.5774Z"/>
<path stroke-width="1.14398" stroke="url(#paint3_linear_1358_374)" d="M52.9617 26.9459C48.055 26.6146 43.458 27.6312 39.9974 29.5141C36.5325 31.3994 34.2668 34.1124 33.8474 37.1717C33.4283 40.2309 34.9156 43.1966 37.8047 45.511C40.6903 47.8224 44.9268 49.4356 49.8335 49.767C54.7403 50.0983 59.3372 49.0817 62.7978 47.1988C66.2624 45.3135 68.5272 42.6012 68.9467 39.542C69.366 36.4827 67.8797 33.5163 64.9905 31.2019C62.1049 28.8904 57.8684 27.2773 52.9617 26.9459Z"/>
<path stroke-width="1.14398" stroke="url(#paint4_linear_1358_374)" d="M53.5548 20.8076C47.2918 20.3846 41.4176 21.6825 36.9878 24.0928C32.5535 26.5056 29.6266 29.9919 29.0844 33.9476C28.5421 37.9035 30.4682 41.7184 34.1658 44.6803C37.8597 47.6391 43.2737 49.6994 49.5365 50.1224C55.7996 50.5453 61.6746 49.2476 66.1046 46.8372C70.5389 44.4244 73.4649 40.9372 74.0071 36.9813C74.5493 33.0256 72.624 29.2116 68.9266 26.2497C65.2326 23.2906 59.818 21.2305 53.5548 20.8076Z"/>
<path stroke-width="1.14398" stroke="url(#paint5_linear_1358_374)" d="M54.1327 11.5887C46.1041 11.0465 38.5665 12.7092 32.8747 15.8062C27.1788 18.9054 23.3923 23.4 22.6901 28.5226C21.9879 33.6453 24.4839 38.5649 29.2336 42.3697C33.9797 46.1714 40.9276 48.8124 48.9561 49.3546C56.9846 49.8967 64.5224 48.234 70.2141 45.1371C75.9101 42.0378 79.6967 37.5424 80.3989 32.4197C81.101 27.2971 78.6048 22.3783 73.8552 18.5736C69.1091 14.7718 62.1613 12.1309 54.1327 11.5887Z"/>
<path stroke-width="1.14398" stroke="url(#paint6_linear_1358_374)" d="M54.7403 4.24065C45.0407 3.58562 35.9282 5.59314 29.0423 9.33993C22.1521 13.089 17.5513 18.5383 16.6976 24.7653C15.844 30.9923 18.8804 36.9572 24.6258 41.5597C30.3677 46.1592 38.7676 49.3504 48.4672 50.0054C58.1667 50.6604 67.2785 48.6518 74.1644 44.9051C81.0547 41.1559 85.6555 35.7068 86.5091 29.4797C87.3625 23.2527 84.3264 17.2877 78.5809 12.6853C72.839 8.08588 64.4397 4.89572 54.7403 4.24065Z"/>
<g filter="url(#filter0_f_1358_374)">
<path stroke-width="1.14398" stroke="url(#paint7_linear_1358_374)" d="M56.9103 98.2925C44.2455 99.1477 32.365 88.6976 30.4648 74.8348C28.5647 60.9721 37.3886 49.1237 50.0533 48.2684C62.7181 47.4131 74.5985 57.8634 76.4988 71.7261C78.3991 85.5889 69.5751 97.4372 56.9103 98.2925Z"/>
</g>
<path stroke-width="1.14398" stroke="url(#paint8_linear_1358_374)" d="M51.62 55.8242C50.4405 55.9038 49.3552 55.6571 48.5585 55.2236C47.7576 54.7878 47.309 54.2041 47.2273 53.6083C47.1457 53.0126 47.4275 52.3794 48.0953 51.8444C48.7596 51.3123 49.7581 50.9248 50.9375 50.8452C52.1169 50.7655 53.2024 51.0123 53.999 51.4457C54.7999 51.8815 55.2485 52.4654 55.3302 53.0611C55.4119 53.6568 55.13 54.29 54.4622 54.825C53.7979 55.3571 52.7995 55.7445 51.62 55.8242Z"/>
<path stroke-width="1.14398" stroke="url(#paint9_linear_1358_374)" d="M52.1411 61.8972C49.6888 62.0628 47.4038 61.5535 45.6975 60.6251C43.987 59.6944 42.9179 58.3835 42.7208 56.9466C42.5238 55.5096 43.2174 54.0799 44.6437 52.9373C46.0666 51.7975 48.1711 50.9909 50.6234 50.8253C53.0756 50.6597 55.3599 51.1699 57.0661 52.0984C58.7768 53.0292 59.8458 54.3398 60.0428 55.7768C60.2396 57.2138 59.5463 58.6436 58.1199 59.7862C56.6972 60.9258 54.5931 61.7315 52.1411 61.8972Z"/>
<path stroke-width="1.14398" stroke="url(#paint10_linear_1358_374)" d="M52.5204 66.8386C48.9342 67.0807 45.5815 66.3369 43.0647 64.9675C40.5436 63.5957 38.9217 61.6372 38.622 59.4507C38.3224 57.2643 39.3828 55.1255 41.4848 53.4415C43.5834 51.7605 46.6725 50.5807 50.2587 50.3384C53.8449 50.0962 57.1977 50.8411 59.7144 52.2105C62.2355 53.5822 63.8573 55.5398 64.157 57.7263C64.4568 59.9128 63.3966 62.0524 61.2943 63.7364C59.1957 65.4174 56.1065 66.5964 52.5204 66.8386Z"/>
<path stroke-width="1.14398" stroke="url(#paint11_linear_1358_374)" d="M52.9673 73.472C48.0606 73.8034 43.4636 72.7867 40.0031 70.9039C36.5382 69.0185 34.2724 66.3056 33.853 63.2462C33.4339 60.187 34.9212 57.2213 37.8103 54.907C40.6959 52.5955 44.9324 50.9824 49.8391 50.651C54.7459 50.3197 59.3428 51.3363 62.8034 53.2192C66.2681 55.1044 68.5328 57.8168 68.9523 60.8759C69.3716 63.9353 67.8853 66.9016 64.9961 69.216C62.1105 71.5275 57.874 73.1406 52.9673 73.472Z"/>
<path stroke-width="1.14398" stroke="url(#paint12_linear_1358_374)" d="M53.5604 79.6104C47.2974 80.0333 41.4233 78.7355 36.9934 76.3252C32.5591 73.9124 29.6323 70.4261 29.09 66.4703C28.5477 62.5145 30.4738 58.6996 34.1714 55.7376C37.8653 52.7788 43.2793 50.7186 49.5422 50.2956C55.8053 49.8726 61.6802 51.1704 66.1102 53.5808C70.5445 55.9935 73.4705 59.4808 74.0127 63.4366C74.5549 67.3924 72.6296 71.2064 68.9322 74.1683C65.2382 77.1273 59.8236 79.1875 53.5604 79.6104Z"/>
<path stroke-width="1.14398" stroke="url(#paint13_linear_1358_374)" d="M54.1386 88.8292C46.11 89.3714 38.5723 87.7088 32.8806 84.6118C27.1846 81.5125 23.3982 77.018 22.6959 71.8954C21.9937 66.7727 24.4897 61.853 29.2394 58.0483C33.9855 54.2465 40.9334 51.6056 48.9619 51.0634C56.9904 50.5212 64.5282 52.1839 70.2199 55.2808C75.916 58.3802 79.7025 62.8755 80.4047 67.9982C81.1068 73.1208 78.6107 78.0397 73.8611 81.8444C69.115 85.6462 62.1672 88.2871 54.1386 88.8292Z"/>
<path stroke-width="1.14398" stroke="url(#paint14_linear_1358_374)" d="M54.7459 96.1773C45.0463 96.8324 35.9339 94.8248 29.0479 91.078C22.1577 87.3289 17.5569 81.8797 16.7032 75.6527C15.8497 69.4257 18.886 63.4607 24.6314 58.8583C30.3733 54.2587 38.7732 51.0676 48.4728 50.4126C58.1723 49.7576 67.2841 51.7661 74.1701 55.5129C81.0603 59.262 85.6611 64.7111 86.5147 70.9382C87.3682 77.1653 84.332 83.1302 78.5865 87.7326C72.8446 92.3321 64.4453 95.5223 54.7459 96.1773Z"/>
<defs>
<filter color-interpolation-filters="sRGB" filterUnits="userSpaceOnUse" height="102.915" width="99.3604" y="21.8229" x="3.80162" id="filter0_f_1358_374">
<feFlood result="BackgroundImageFix" flood-opacity="0"/>
<feBlend result="shape" in2="BackgroundImageFix" in="SourceGraphic" mode="normal"/>
<feGaussianBlur result="effect1_foregroundBlur_1358_374" stdDeviation="12.9147"/>
</filter>
<linearGradient gradientUnits="userSpaceOnUse" y2="47.9208" x2="46.0755" y1="44.0277" x1="51.6919" id="paint0_linear_1358_374">
<stop stop-color="white"/>
<stop stop-opacity="0" stop-color="white" offset="1"/>
</linearGradient>
<linearGradient gradientUnits="userSpaceOnUse" y2="45.7316" x2="40.9962" y1="37.9566" x1="52.2127" id="paint1_linear_1358_374">
<stop stop-color="white"/>
<stop stop-opacity="0" stop-color="white" offset="1"/>
</linearGradient>
<linearGradient gradientUnits="userSpaceOnUse" y2="44.2445" x2="36.3872" y1="33.0113" x1="52.5926" id="paint2_linear_1358_374">
<stop stop-color="white"/>
<stop stop-opacity="0" stop-color="white" offset="1"/>
</linearGradient>
<linearGradient gradientUnits="userSpaceOnUse" y2="41.6403" x2="31.0237" y1="26.3798" x1="53.0391" id="paint3_linear_1358_374">
<stop stop-color="white"/>
<stop stop-opacity="0" stop-color="white" offset="1"/>
</linearGradient>
<linearGradient gradientUnits="userSpaceOnUse" y2="39.6385" x2="25.6497" y1="20.2415" x1="53.6326" id="paint4_linear_1358_374">
<stop stop-color="white"/>
<stop stop-opacity="0" stop-color="white" offset="1"/>
</linearGradient>
<linearGradient gradientUnits="userSpaceOnUse" y2="35.8038" x2="18.46" y1="11.0226" x1="54.2103" id="paint5_linear_1358_374">
<stop stop-color="white"/>
<stop stop-opacity="0" stop-color="white" offset="1"/>
</linearGradient>
<linearGradient gradientUnits="userSpaceOnUse" y2="33.5517" x2="11.7155" y1="3.67452" x1="54.8176" id="paint6_linear_1358_374">
<stop stop-color="white"/>
<stop stop-opacity="0" stop-color="white" offset="1"/>
</linearGradient>
<linearGradient gradientUnits="userSpaceOnUse" y2="84.4519" x2="19.0964" y1="98.8586" x1="56.9879" id="paint7_linear_1358_374">
<stop stop-color="white"/>
<stop stop-opacity="0" stop-color="white" offset="1"/>
</linearGradient>
<linearGradient gradientUnits="userSpaceOnUse" y2="52.4972" x2="46.0811" y1="56.3903" x1="51.6975" id="paint8_linear_1358_374">
<stop stop-color="white"/>
<stop stop-opacity="0" stop-color="white" offset="1"/>
</linearGradient>
<linearGradient gradientUnits="userSpaceOnUse" y2="54.6884" x2="41.0018" y1="62.4633" x1="52.2183" id="paint9_linear_1358_374">
<stop stop-color="white"/>
<stop stop-opacity="0" stop-color="white" offset="1"/>
</linearGradient>
<linearGradient gradientUnits="userSpaceOnUse" y2="56.1715" x2="36.3928" y1="67.4047" x1="52.5983" id="paint10_linear_1358_374">
<stop stop-color="white"/>
<stop stop-opacity="0" stop-color="white" offset="1"/>
</linearGradient>
<linearGradient gradientUnits="userSpaceOnUse" y2="58.7777" x2="31.0293" y1="74.0382" x1="53.0447" id="paint11_linear_1358_374">
<stop stop-color="white"/>
<stop stop-opacity="0" stop-color="white" offset="1"/>
</linearGradient>
<linearGradient gradientUnits="userSpaceOnUse" y2="60.7795" x2="25.6553" y1="80.1765" x1="53.6382" id="paint12_linear_1358_374">
<stop stop-color="white"/>
<stop stop-opacity="0" stop-color="white" offset="1"/>
</linearGradient>
<linearGradient gradientUnits="userSpaceOnUse" y2="64.6142" x2="18.4659" y1="89.3954" x1="54.2162" id="paint13_linear_1358_374">
<stop stop-color="white"/>
<stop stop-opacity="0" stop-color="white" offset="1"/>
</linearGradient>
<linearGradient gradientUnits="userSpaceOnUse" y2="66.8662" x2="11.7211" y1="96.7435" x1="54.8232" id="paint14_linear_1358_374">
<stop stop-color="white"/>
<stop stop-opacity="0" stop-color="white" offset="1"/>
</linearGradient>
</defs>
</svg>