<svg width="25" height="25" viewBox="0 0 25 25" fill="none" xmlns="http://www.w3.org/2000/svg">
<path fill-rule="evenodd" clip-rule="evenodd" d="M4.80371 3.91016C3.97528 3.91016 3.30371 4.58173 3.30371 5.41016V20.4102C3.30371 21.2386 3.97528 21.9102 4.80371 21.9102H19.8037C20.6321 21.9102 21.3037 21.2386 21.3037 20.4102V5.41016C21.3037 4.58173 20.6321 3.91016 19.8037 3.91016H4.80371ZM8.82447 7.91288C8.8301 8.86913 8.11432 9.45835 7.26494 9.45413C6.46478 9.44991 5.76728 8.81288 5.7715 7.91429C5.77572 7.06913 6.44369 6.38991 7.31135 6.4096C8.19166 6.42929 8.8301 7.07476 8.82447 7.91288ZM12.5834 10.6719H10.0634H10.062V19.2318H12.7254V19.0321C12.7254 18.6522 12.7251 18.2722 12.7248 17.8921C12.724 16.8783 12.7231 15.8634 12.7283 14.8499C12.7297 14.6038 12.7409 14.3479 12.8042 14.113C13.0418 13.2355 13.8308 12.6688 14.7111 12.8081C15.2764 12.8966 15.6504 13.2243 15.8079 13.7573C15.905 14.0905 15.9486 14.4491 15.9528 14.7965C15.9642 15.8441 15.9626 16.8917 15.961 17.9394C15.9604 18.3092 15.9598 18.6792 15.9598 19.049V19.2304H18.6317V19.0251C18.6317 18.5731 18.6315 18.1212 18.6312 17.6693C18.6307 16.5398 18.6301 15.4103 18.6331 14.2804C18.6345 13.7699 18.5797 13.2665 18.4545 12.7729C18.2675 12.0388 17.8808 11.4313 17.2522 10.9926C16.8064 10.6803 16.317 10.4793 15.77 10.4568C15.7077 10.4542 15.6449 10.4508 15.5818 10.4474C15.3021 10.4322 15.0178 10.4169 14.7504 10.4708C13.9854 10.6241 13.3133 10.9743 12.8056 11.5916C12.7466 11.6624 12.6889 11.7343 12.6028 11.8416L12.5834 11.8659V10.6719ZM5.98535 19.2346H8.63613V10.6775H5.98535V19.2346Z" fill="black"/>
</svg>
