<svg width="1441" height="833" viewBox="0 0 1441 833" fill="none" xmlns="http://www.w3.org/2000/svg">
<g clip-path="url(#clip0_1083_7501)">
<rect width="1440" height="832" transform="translate(0.0771484 0.847656)" fill="#0E1821"/>
<g filter="url(#filter0_f_1083_7501)">
<path d="M717.077 0.848389C1092.08 0.848389 1396.08 44.0991 1396.08 97.4515C1396.08 150.804 1092.08 194.055 717.077 194.055C342.076 194.055 38.0771 150.804 38.0771 97.4515C38.0771 44.0991 342.076 0.848389 717.077 0.848389Z" fill="#006900" fill-opacity="0.4"/>
</g>
<mask id="mask0_1083_7501" style="mask-type:alpha" maskUnits="userSpaceOnUse" x="-226" y="535" width="465" height="465">
<g style="mix-blend-mode:screen">
<path d="M153.601 589.006C55.0785 507.714 -90.69 521.683 -171.982 620.205C-253.274 718.728 -239.306 864.497 -140.783 945.788C-42.26 1027.08 103.509 1013.11 184.8 914.589C266.092 816.067 252.124 670.298 153.601 589.006Z" stroke="url(#paint0_linear_1083_7501)"/>
</g>
</mask>
<g mask="url(#mask0_1083_7501)">
<path d="M-2.68351 536.143C58.6491 533.732 118.427 555.785 163.501 597.448C185.819 618.078 203.855 642.902 216.58 670.502C229.305 698.102 236.468 727.939 237.662 758.308L6.407 767.398L-2.68351 536.143Z" fill="url(#paint1_linear_1083_7501)"/>
</g>
<mask id="mask1_1083_7501" style="mask-type:alpha" maskUnits="userSpaceOnUse" x="-230" y="590" width="423" height="422">
<g style="mix-blend-mode:screen">
<path d="M115.244 638.758C25.6513 564.835 -106.904 577.537 -180.828 667.129C-254.751 756.722 -242.049 889.277 -152.457 963.201C-62.8643 1037.12 69.6914 1024.42 143.615 934.829C217.538 845.237 204.836 712.681 115.244 638.758Z" stroke="url(#paint2_linear_1083_7501)" stroke-width="0.909357"/>
</g>
</mask>
<g mask="url(#mask1_1083_7501)">
<path d="M-26.8706 590.688C28.9027 588.496 83.2624 608.549 124.251 646.436C144.546 665.196 160.947 687.77 172.518 712.869C184.09 737.967 190.604 765.099 191.689 792.715L-18.604 800.982L-26.8706 590.688Z" fill="url(#paint3_linear_1083_7501)"/>
</g>
<mask id="mask2_1083_7501" style="mask-type:alpha" maskUnits="userSpaceOnUse" x="-234" y="647" width="379" height="378">
<g style="mix-blend-mode:screen">
<path d="M75.2286 690.663C-5.04757 624.427 -123.82 635.808 -190.056 716.084C-256.293 796.36 -244.911 915.132 -164.635 981.369C-84.3589 1047.61 34.4131 1036.22 100.65 955.948C166.886 875.672 155.505 756.9 75.2286 690.663Z" stroke="url(#paint4_linear_1083_7501)" stroke-width="0.814798"/>
</g>
</mask>
<g mask="url(#mask2_1083_7501)">
<path d="M-52.1097 647.591C-2.13599 645.627 46.5712 663.595 83.2972 697.542C101.482 714.352 116.178 734.578 126.546 757.067C136.914 779.555 142.751 803.866 143.723 828.61L-44.7028 836.017L-52.1097 647.591Z" fill="url(#paint5_linear_1083_7501)"/>
</g>
<mask id="mask3_1083_7501" style="mask-type:alpha" maskUnits="userSpaceOnUse" x="-238" y="702" width="336" height="336">
<g style="mix-blend-mode:screen">
<path d="M36.3732 741.071C-34.8551 682.3 -140.24 692.399 -199.011 763.627C-257.782 834.855 -247.684 940.24 -176.456 999.011C-105.227 1057.78 0.157973 1047.68 58.929 976.456C117.7 905.227 107.601 799.842 36.3732 741.071Z" stroke="url(#paint6_linear_1083_7501)" stroke-width="0.722963"/>
</g>
</mask>
<g mask="url(#mask3_1083_7501)">
<path d="M-76.6137 702.853C-32.2725 701.11 10.9449 717.053 43.5315 747.174C59.6667 762.089 72.7063 780.035 81.9057 799.989C91.105 819.943 96.2841 841.514 97.1471 863.47L-70.0416 870.042L-76.6137 702.853Z" fill="url(#paint7_linear_1083_7501)"/>
</g>
<mask id="mask4_1083_7501" style="mask-type:alpha" maskUnits="userSpaceOnUse" x="1154" y="-125" width="465" height="465">
<g style="mix-blend-mode:screen">
<path d="M1163.87 170.38C1129.09 47.4771 1200.52 -80.3536 1323.42 -115.138C1446.33 -149.922 1574.16 -78.4876 1608.94 44.4155C1643.73 167.319 1572.29 295.149 1449.39 329.934C1326.49 364.718 1198.66 293.283 1163.87 170.38Z" stroke="url(#paint8_linear_1083_7501)"/>
</g>
</mask>
<g mask="url(#mask4_1083_7501)">
<path d="M1178.36 6.03493C1151.47 61.2149 1147.61 124.814 1167.62 182.841C1177.53 211.573 1193 238.073 1213.15 260.826C1233.3 283.58 1257.73 302.142 1285.05 315.453L1386.41 107.397L1178.36 6.03493Z" fill="url(#paint9_linear_1083_7501)"/>
</g>
<mask id="mask5_1083_7501" style="mask-type:alpha" maskUnits="userSpaceOnUse" x="1216" y="-113" width="423" height="422">
<g style="mix-blend-mode:screen">
<path d="M1224.85 155.28C1193.22 43.5174 1258.18 -72.7265 1369.94 -104.358C1481.7 -135.989 1597.94 -71.0295 1629.58 40.7332C1661.21 152.496 1596.25 268.74 1484.49 300.371C1372.72 332.002 1256.48 267.043 1224.85 155.28Z" stroke="url(#paint10_linear_1083_7501)" stroke-width="0.909357"/>
</g>
</mask>
<g mask="url(#mask5_1083_7501)">
<path d="M1238.02 5.83315C1213.57 56.0115 1210.06 113.846 1228.26 166.613C1237.26 192.741 1251.33 216.838 1269.65 237.529C1287.98 258.221 1310.19 275.1 1335.04 287.205L1427.21 98.0077L1238.02 5.83315Z" fill="url(#paint11_linear_1083_7501)"/>
</g>
<mask id="mask6_1083_7501" style="mask-type:alpha" maskUnits="userSpaceOnUse" x="1280" y="-101" width="379" height="379">
<g style="mix-blend-mode:screen">
<path d="M1288.46 139.531C1260.12 39.3897 1318.33 -64.7666 1418.47 -93.1087C1518.61 -121.451 1622.76 -63.2461 1651.11 36.8951C1679.45 137.036 1621.24 241.193 1521.1 269.535C1420.96 297.877 1316.81 239.672 1288.46 139.531Z" stroke="url(#paint12_linear_1083_7501)" stroke-width="0.814798"/>
</g>
</mask>
<g mask="url(#mask6_1083_7501)">
<path d="M1300.27 5.62411C1278.36 50.5847 1275.22 102.405 1291.52 149.685C1299.59 173.096 1312.2 194.688 1328.61 213.228C1345.03 231.767 1364.94 246.892 1387.2 257.737L1469.79 88.214L1300.27 5.62411Z" fill="url(#paint13_linear_1083_7501)"/>
</g>
<mask id="mask7_1083_7501" style="mask-type:alpha" maskUnits="userSpaceOnUse" x="1343" y="-89" width="336" height="336">
<g style="mix-blend-mode:screen">
<path d="M1350.25 124.237C1325.11 35.3831 1376.75 -57.0337 1465.6 -82.1814C1554.46 -107.329 1646.88 -55.6846 1672.02 33.1697C1697.17 122.024 1645.53 214.441 1556.67 239.589C1467.82 264.736 1375.4 213.092 1350.25 124.237Z" stroke="url(#paint14_linear_1083_7501)" stroke-width="0.722963"/>
</g>
</mask>
<g mask="url(#mask7_1083_7501)">
<path d="M1360.72 5.42395C1341.29 45.3171 1338.5 91.2967 1352.96 133.248C1360.12 154.02 1371.31 173.179 1385.87 189.629C1400.44 206.079 1418.11 219.498 1437.86 229.122L1511.14 78.7051L1360.72 5.42395Z" fill="url(#paint15_linear_1083_7501)"/>
</g>
</g>
<defs>
<filter id="filter0_f_1083_7501" x="-367.523" y="-404.752" width="2169.2" height="1004.41" filterUnits="userSpaceOnUse" color-interpolation-filters="sRGB">
<feFlood flood-opacity="0" result="BackgroundImageFix"/>
<feBlend mode="normal" in="SourceGraphic" in2="BackgroundImageFix" result="shape"/>
<feGaussianBlur stdDeviation="202.8" result="effect1_foregroundBlur_1083_7501"/>
</filter>
<linearGradient id="paint0_linear_1083_7501" x1="153.701" y1="588.885" x2="-140.874" y2="945.93" gradientUnits="userSpaceOnUse">
<stop stop-color="#8C8C8C"/>
<stop offset="1" stop-color="#8C8C8C" stop-opacity="0"/>
</linearGradient>
<linearGradient id="paint1_linear_1083_7501" x1="235.997" y1="754.883" x2="-0.142384" y2="534.075" gradientUnits="userSpaceOnUse">
<stop stop-color="#73AF5E" stop-opacity="0"/>
<stop offset="1" stop-color="#73AF5E"/>
</linearGradient>
<linearGradient id="paint2_linear_1083_7501" x1="115.334" y1="638.648" x2="-152.539" y2="963.329" gradientUnits="userSpaceOnUse">
<stop stop-color="#8C8C8C"/>
<stop offset="1" stop-color="#8C8C8C" stop-opacity="0"/>
</linearGradient>
<linearGradient id="paint3_linear_1083_7501" x1="190.175" y1="789.601" x2="-24.5598" y2="588.807" gradientUnits="userSpaceOnUse">
<stop stop-color="#73AF5E" stop-opacity="0"/>
<stop offset="1" stop-color="#73AF5E"/>
</linearGradient>
<linearGradient id="paint4_linear_1083_7501" x1="75.3098" y1="690.565" x2="-164.709" y2="981.484" gradientUnits="userSpaceOnUse">
<stop stop-color="#8C8C8C"/>
<stop offset="1" stop-color="#8C8C8C" stop-opacity="0"/>
</linearGradient>
<linearGradient id="paint5_linear_1083_7501" x1="142.367" y1="825.82" x2="-50.0392" y2="645.906" gradientUnits="userSpaceOnUse">
<stop stop-color="#73AF5E" stop-opacity="0"/>
<stop offset="1" stop-color="#73AF5E"/>
</linearGradient>
<linearGradient id="paint6_linear_1083_7501" x1="36.4453" y1="740.984" x2="-176.521" y2="999.114" gradientUnits="userSpaceOnUse">
<stop stop-color="#8C8C8C"/>
<stop offset="1" stop-color="#8C8C8C" stop-opacity="0"/>
</linearGradient>
<linearGradient id="paint7_linear_1083_7501" x1="101.06" y1="886.28" x2="-74.7766" y2="701.358" gradientUnits="userSpaceOnUse">
<stop stop-color="#248238" stop-opacity="0.05"/>
<stop offset="1" stop-color="#73AF5E"/>
</linearGradient>
<linearGradient id="paint8_linear_1083_7501" x1="1163.72" y1="170.423" x2="1609.11" y2="44.3893" gradientUnits="userSpaceOnUse">
<stop stop-color="#8C8C8C"/>
<stop offset="1" stop-color="#8C8C8C" stop-opacity="0"/>
</linearGradient>
<linearGradient id="paint9_linear_1083_7501" x1="1282.59" y1="312.551" x2="1175.44" y2="7.52933" gradientUnits="userSpaceOnUse">
<stop stop-color="#73AF5E" stop-opacity="0"/>
<stop offset="1" stop-color="#73AF5E"/>
</linearGradient>
<linearGradient id="paint10_linear_1083_7501" x1="1224.71" y1="155.319" x2="1629.73" y2="40.7095" gradientUnits="userSpaceOnUse">
<stop stop-color="#8C8C8C"/>
<stop offset="1" stop-color="#8C8C8C" stop-opacity="0"/>
</linearGradient>
<linearGradient id="paint11_linear_1083_7501" x1="1332.8" y1="284.566" x2="1235.37" y2="7.1921" gradientUnits="userSpaceOnUse">
<stop stop-color="#73AF5E" stop-opacity="0"/>
<stop offset="1" stop-color="#73AF5E"/>
</linearGradient>
<linearGradient id="paint12_linear_1083_7501" x1="1288.34" y1="139.566" x2="1651.24" y2="36.8738" gradientUnits="userSpaceOnUse">
<stop stop-color="#8C8C8C"/>
<stop offset="1" stop-color="#8C8C8C" stop-opacity="0"/>
</linearGradient>
<linearGradient id="paint13_linear_1083_7501" x1="1385.19" y1="255.373" x2="1297.89" y2="6.84174" gradientUnits="userSpaceOnUse">
<stop stop-color="#73AF5E" stop-opacity="0"/>
<stop offset="1" stop-color="#73AF5E"/>
</linearGradient>
<linearGradient id="paint14_linear_1083_7501" x1="1350.14" y1="124.268" x2="1672.14" y2="33.1508" gradientUnits="userSpaceOnUse">
<stop stop-color="#8C8C8C"/>
<stop offset="1" stop-color="#8C8C8C" stop-opacity="0"/>
</linearGradient>
<linearGradient id="paint15_linear_1083_7501" x1="1457.17" y1="241.881" x2="1358.62" y2="6.50436" gradientUnits="userSpaceOnUse">
<stop stop-color="#248238" stop-opacity="0.05"/>
<stop offset="1" stop-color="#73AF5E"/>
</linearGradient>
<clipPath id="clip0_1083_7501">
<rect width="1440" height="832" fill="white" transform="translate(0.0771484 0.847656)"/>
</clipPath>
</defs>
</svg>
