<svg width="104" height="103" viewBox="0 0 104 103" fill="none" xmlns="http://www.w3.org/2000/svg">
<path d="M51.5649 26.1523C64.7725 26.1523 75.4888 36.9505 75.4888 50.2812C75.4887 63.6119 64.7725 74.4102 51.5649 74.4102C38.3576 74.4099 27.6422 63.6118 27.6421 50.2812C27.6421 36.9507 38.3575 26.1526 51.5649 26.1523Z" stroke="url(#paint0_linear_1358_144)" stroke-width="1.23065"/>
<path d="M51.5581 3.8125C77.0003 3.8125 97.6341 24.6116 97.6343 50.2793C97.6343 75.9472 77.0004 96.7461 51.5581 96.7461C26.1158 96.7461 5.48193 75.9472 5.48193 50.2793C5.48209 24.6116 26.1159 3.8125 51.5581 3.8125Z" stroke="url(#paint1_linear_1358_144)" stroke-width="1.23065"/>
<path d="M51.5625 36.8066C58.935 36.8068 64.9199 42.8354 64.9199 50.2822C64.9197 57.7288 58.9348 63.7567 51.5625 63.7568C44.1901 63.7568 38.2044 57.7289 38.2041 50.2822C38.2041 42.8353 44.1899 36.8066 51.5625 36.8066Z" stroke="url(#paint2_linear_1358_144)" stroke-width="1.23065"/>
<path d="M51.5581 15.1543C70.7889 15.1543 86.3871 30.8759 86.3872 50.2803C86.3872 69.6847 70.7889 85.4062 51.5581 85.4062C32.3274 85.4061 16.729 69.6846 16.729 50.2803C16.7291 30.876 32.3274 15.1544 51.5581 15.1543Z" stroke="url(#paint3_linear_1358_144)" stroke-width="1.23065"/>
<defs>
<linearGradient id="paint0_linear_1358_144" x1="51.5654" y1="25.5371" x2="51.5654" y2="75.0251" gradientUnits="userSpaceOnUse">
<stop offset="0.00961538" stop-color="white" stop-opacity="0.3"/>
<stop offset="0.264423" stop-color="white"/>
<stop offset="0.543269" stop-color="white"/>
<stop offset="0.9999" stop-color="white" stop-opacity="0.3"/>
</linearGradient>
<linearGradient id="paint1_linear_1358_144" x1="51.5581" y1="3.19727" x2="51.5581" y2="97.3619" gradientUnits="userSpaceOnUse">
<stop offset="0.00961538" stop-color="white" stop-opacity="0.3"/>
<stop offset="0.264423" stop-color="white"/>
<stop offset="0.543269" stop-color="white"/>
<stop offset="0.9999" stop-color="white" stop-opacity="0.3"/>
</linearGradient>
<linearGradient id="paint2_linear_1358_144" x1="51.5622" y1="36.1914" x2="51.5622" y2="64.3721" gradientUnits="userSpaceOnUse">
<stop offset="0.00961538" stop-color="white" stop-opacity="0.3"/>
<stop offset="0.264423" stop-color="white"/>
<stop offset="0.543269" stop-color="white"/>
<stop offset="0.9999" stop-color="white" stop-opacity="0.3"/>
</linearGradient>
<linearGradient id="paint3_linear_1358_144" x1="51.5583" y1="14.5391" x2="51.5583" y2="86.0217" gradientUnits="userSpaceOnUse">
<stop offset="0.00961538" stop-color="white" stop-opacity="0.3"/>
<stop offset="0.264423" stop-color="white"/>
<stop offset="0.543269" stop-color="white"/>
<stop offset="0.9999" stop-color="white" stop-opacity="0.3"/>
</linearGradient>
</defs>
</svg>
