<svg width="592" height="602" viewBox="0 0 592 602" fill="none" xmlns="http://www.w3.org/2000/svg">
<g clip-path="url(#clip0_2497_13506)">
<rect x="-0.00390625" y="0.856445" width="592" height="601" rx="30" fill="#0E1821"/>
<line x1="1.49609" y1="290.938" x2="590.496" y2="290.938" stroke="white" stroke-opacity="0.03"/>
<line x1="1.49609" y1="269.421" x2="590.496" y2="269.421" stroke="white" stroke-opacity="0.03"/>
<line x1="1.49609" y1="247.904" x2="590.496" y2="247.904" stroke="white" stroke-opacity="0.03"/>
<line x1="1.49609" y1="226.386" x2="590.496" y2="226.386" stroke="white" stroke-opacity="0.03"/>
<line x1="1.49609" y1="204.869" x2="590.496" y2="204.869" stroke="white" stroke-opacity="0.03"/>
<line x1="1.49609" y1="183.352" x2="590.496" y2="183.352" stroke="white" stroke-opacity="0.03"/>
<line x1="1.49609" y1="161.834" x2="590.496" y2="161.834" stroke="white" stroke-opacity="0.03"/>
<line x1="1.49609" y1="140.317" x2="590.496" y2="140.317" stroke="white" stroke-opacity="0.03"/>
<line x1="1.49609" y1="118.8" x2="590.496" y2="118.8" stroke="white" stroke-opacity="0.03"/>
<line x1="1.49609" y1="97.2834" x2="590.496" y2="97.2835" stroke="white" stroke-opacity="0.03"/>
<line x1="1.49609" y1="75.7659" x2="590.496" y2="75.7659" stroke="white" stroke-opacity="0.03"/>
<line x1="1.49609" y1="54.2483" x2="590.496" y2="54.2483" stroke="white" stroke-opacity="0.03"/>
<line x1="1.49609" y1="32.7314" x2="590.496" y2="32.7315" stroke="white" stroke-opacity="0.03"/>
<line x1="1.49609" y1="11.2144" x2="590.496" y2="11.2144" stroke="white" stroke-opacity="0.03"/>
<line x1="22.7773" y1="612.852" x2="22.7773" y2="-9.80231" stroke="white" stroke-opacity="0.03"/>
<line x1="44.5586" y1="612.852" x2="44.5586" y2="-9.80231" stroke="white" stroke-opacity="0.03"/>
<line x1="66.3359" y1="612.852" x2="66.3359" y2="-9.80231" stroke="white" stroke-opacity="0.03"/>
<line x1="88.1172" y1="612.852" x2="88.1172" y2="-9.80231" stroke="white" stroke-opacity="0.03"/>
<line x1="109.898" y1="612.852" x2="109.898" y2="-9.80231" stroke="white" stroke-opacity="0.03"/>
<line x1="131.68" y1="612.852" x2="131.68" y2="-9.80231" stroke="white" stroke-opacity="0.03"/>
<line x1="153.461" y1="612.852" x2="153.461" y2="-9.80231" stroke="white" stroke-opacity="0.03"/>
<line x1="175.242" y1="612.852" x2="175.242" y2="-9.80231" stroke="white" stroke-opacity="0.03"/>
<line x1="197.023" y1="612.852" x2="197.023" y2="-9.80231" stroke="white" stroke-opacity="0.03"/>
<line x1="218.805" y1="612.852" x2="218.805" y2="-9.80231" stroke="white" stroke-opacity="0.03"/>
<line x1="240.586" y1="612.852" x2="240.586" y2="-9.80231" stroke="white" stroke-opacity="0.03"/>
<line x1="262.367" y1="612.852" x2="262.367" y2="-9.80231" stroke="white" stroke-opacity="0.03"/>
<line x1="284.145" y1="612.852" x2="284.145" y2="-9.80231" stroke="white" stroke-opacity="0.03"/>
<line x1="305.926" y1="612.852" x2="305.926" y2="-9.80231" stroke="white" stroke-opacity="0.03"/>
<line x1="327.707" y1="612.852" x2="327.707" y2="-9.80231" stroke="white" stroke-opacity="0.03"/>
<line x1="349.488" y1="612.852" x2="349.488" y2="-9.80231" stroke="white" stroke-opacity="0.03"/>
<line x1="371.27" y1="612.852" x2="371.27" y2="-9.80231" stroke="white" stroke-opacity="0.03"/>
<line x1="393.047" y1="612.852" x2="393.047" y2="-9.80231" stroke="white" stroke-opacity="0.03"/>
<line x1="414.828" y1="612.852" x2="414.828" y2="-9.80231" stroke="white" stroke-opacity="0.03"/>
<line x1="436.609" y1="612.852" x2="436.609" y2="-9.80231" stroke="white" stroke-opacity="0.03"/>
<line x1="458.391" y1="612.852" x2="458.391" y2="-9.80231" stroke="white" stroke-opacity="0.03"/>
<line x1="480.172" y1="612.852" x2="480.172" y2="-9.80231" stroke="white" stroke-opacity="0.03"/>
<line x1="501.953" y1="612.852" x2="501.953" y2="-9.80231" stroke="white" stroke-opacity="0.03"/>
<line x1="523.734" y1="612.852" x2="523.734" y2="-9.80231" stroke="white" stroke-opacity="0.03"/>
<line x1="545.516" y1="612.852" x2="545.516" y2="-9.80231" stroke="white" stroke-opacity="0.03"/>
<line x1="567.297" y1="612.852" x2="567.297" y2="-9.80231" stroke="white" stroke-opacity="0.03"/>
<line x1="589.996" y1="611.17" x2="589.996" y2="-11.4839" stroke="white" stroke-opacity="0.03"/>
<line x1="1.49609" y1="592.179" x2="590.496" y2="592.179" stroke="white" stroke-opacity="0.03"/>
<line x1="1.49609" y1="570.661" x2="590.496" y2="570.661" stroke="white" stroke-opacity="0.03"/>
<line x1="1.49609" y1="549.145" x2="590.496" y2="549.145" stroke="white" stroke-opacity="0.03"/>
<line x1="1.49609" y1="527.627" x2="590.496" y2="527.627" stroke="white" stroke-opacity="0.03"/>
<line x1="1.49609" y1="506.111" x2="590.496" y2="506.111" stroke="white" stroke-opacity="0.03"/>
<line x1="1.49609" y1="484.593" x2="590.496" y2="484.593" stroke="white" stroke-opacity="0.03"/>
<line x1="1.49609" y1="463.075" x2="590.496" y2="463.075" stroke="white" stroke-opacity="0.03"/>
<line x1="1.49609" y1="441.559" x2="590.496" y2="441.559" stroke="white" stroke-opacity="0.03"/>
<line x1="1.49609" y1="420.041" x2="590.496" y2="420.041" stroke="white" stroke-opacity="0.03"/>
<line x1="1.49609" y1="398.525" x2="590.496" y2="398.525" stroke="white" stroke-opacity="0.03"/>
<line x1="1.49609" y1="377.007" x2="590.496" y2="377.007" stroke="white" stroke-opacity="0.03"/>
<line x1="1.49609" y1="355.49" x2="590.496" y2="355.49" stroke="white" stroke-opacity="0.03"/>
<line x1="1.49609" y1="333.973" x2="590.496" y2="333.973" stroke="white" stroke-opacity="0.03"/>
<line x1="1.49609" y1="312.455" x2="590.496" y2="312.455" stroke="white" stroke-opacity="0.03"/>
<line x1="0.996094" y1="612.852" x2="0.996094" y2="-9.80231" stroke="white" stroke-opacity="0.03"/>
</g>
<defs>
<clipPath id="clip0_2497_13506">
<rect x="-0.00390625" y="0.856445" width="592" height="601" rx="30" fill="white"/>
</clipPath>
</defs>
</svg>
