<svg width="575" height="580" viewBox="0 0 575 580" fill="none" xmlns="http://www.w3.org/2000/svg">
<g opacity="0.6">
<path opacity="0.2" d="M287.825 138.755C370.802 138.755 438.076 206.586 438.076 290.269C438.076 373.951 370.802 441.781 287.825 441.781C204.848 441.781 137.574 373.951 137.574 290.269C137.574 206.586 204.848 138.755 287.825 138.755Z" fill="url(#paint0_radial_2482_8702)" stroke="url(#paint1_linear_2482_8702)" stroke-width="1.04705"/>
<path opacity="0.2" d="M287.824 1.49902C445.976 1.49919 574.19 130.781 574.19 290.268C574.19 449.754 445.976 579.036 287.824 579.036C129.672 579.036 1.45703 449.754 1.45703 290.268C1.45718 130.781 129.672 1.49902 287.824 1.49902Z" fill="url(#paint2_radial_2482_8702)" stroke="url(#paint3_linear_2482_8702)" stroke-width="1.04705"/>
<path opacity="0.2" d="M287.822 204.214C334.947 204.214 373.156 242.737 373.156 290.267C373.156 337.796 334.947 376.32 287.822 376.32C240.698 376.32 202.488 337.796 202.488 290.267C202.488 242.737 240.698 204.214 287.822 204.214Z" fill="url(#paint4_radial_2482_8702)" stroke="url(#paint5_linear_2482_8702)" stroke-width="1.04705"/>
<path opacity="0.2" d="M287.828 71.1826C407.814 71.1826 505.09 169.266 505.09 290.268C505.09 411.269 407.814 509.354 287.828 509.354C167.842 509.353 70.5664 411.269 70.5664 290.268C70.5666 169.266 167.842 71.1827 287.828 71.1826Z" fill="url(#paint6_radial_2482_8702)" stroke="url(#paint7_linear_2482_8702)" stroke-width="1.04705"/>
</g>
<defs>
<radialGradient id="paint0_radial_2482_8702" cx="0" cy="0" r="1" gradientTransform="matrix(72.6359 -72.6891 72.0856 73.244 214.639 370.171)" gradientUnits="userSpaceOnUse">
<stop stop-color="#D9D9D9"/>
<stop offset="1" stop-color="#D9D9D9" stop-opacity="0"/>
</radialGradient>
<linearGradient id="paint1_linear_2482_8702" x1="287.825" y1="138.231" x2="287.825" y2="442.305" gradientUnits="userSpaceOnUse">
<stop stop-color="#4BC33C" stop-opacity="0"/>
<stop offset="1" stop-color="#3CC35E"/>
</linearGradient>
<radialGradient id="paint2_radial_2482_8702" cx="0" cy="0" r="1" gradientTransform="matrix(138.21 -138.311 137.163 139.367 148.567 442.305)" gradientUnits="userSpaceOnUse">
<stop stop-color="#D9D9D9"/>
<stop offset="1" stop-color="#D9D9D9" stop-opacity="0"/>
</radialGradient>
<linearGradient id="paint3_linear_2482_8702" x1="287.824" y1="0.975586" x2="287.824" y2="579.56" gradientUnits="userSpaceOnUse">
<stop stop-color="#4BC33C" stop-opacity="0"/>
<stop offset="1" stop-color="#3CC35E"/>
</linearGradient>
<radialGradient id="paint4_radial_2482_8702" cx="0" cy="0" r="1" gradientTransform="matrix(41.3621 -41.3924 41.0487 41.7084 246.147 335.767)" gradientUnits="userSpaceOnUse">
<stop stop-color="#D9D9D9"/>
<stop offset="1" stop-color="#D9D9D9" stop-opacity="0"/>
</radialGradient>
<linearGradient id="paint5_linear_2482_8702" x1="287.823" y1="203.69" x2="287.823" y2="376.843" gradientUnits="userSpaceOnUse">
<stop stop-color="#4BC33C" stop-opacity="0"/>
<stop offset="1" stop-color="#3CC35E"/>
</linearGradient>
<radialGradient id="paint6_radial_2482_8702" cx="0" cy="0" r="1" gradientTransform="matrix(104.918 -104.995 104.124 105.797 182.115 405.683)" gradientUnits="userSpaceOnUse">
<stop stop-color="#D9D9D9"/>
<stop offset="1" stop-color="#D9D9D9" stop-opacity="0"/>
</radialGradient>
<linearGradient id="paint7_linear_2482_8702" x1="287.828" y1="70.6592" x2="287.828" y2="509.877" gradientUnits="userSpaceOnUse">
<stop stop-color="#4BC33C" stop-opacity="0"/>
<stop offset="1" stop-color="#3CC35E"/>
</linearGradient>
</defs>
</svg>
