<svg width="1441" height="632" viewBox="0 0 1441 632" fill="none" xmlns="http://www.w3.org/2000/svg">
<g clip-path="url(#clip0_2668_3453)">
<g opacity="0.6">
<path opacity="0.2" d="M622.1 -243.962C685.081 -297.986 780.306 -290.302 834.789 -226.785C889.273 -163.269 882.373 -67.9849 819.393 -13.9607C756.412 40.0634 661.187 32.3794 606.704 -31.1367C552.22 -94.653 559.119 -189.938 622.1 -243.962Z" fill="url(#paint0_radial_2668_3453)" stroke="url(#paint1_linear_2668_3453)" stroke-width="1.04705"/>
<path opacity="0.2" d="M532.735 -348.14C652.774 -451.109 834.263 -436.459 938.1 -315.406C1041.94 -194.354 1028.79 -12.7497 908.754 90.2188C788.714 193.187 607.225 178.538 503.387 57.4852C399.55 -63.5676 412.695 -245.172 532.735 -348.14Z" fill="url(#paint2_radial_2668_3453)" stroke="url(#paint3_linear_2668_3453)" stroke-width="1.04705"/>
<path opacity="0.2" d="M578.103 -295.249C669.174 -373.369 806.867 -362.256 885.648 -270.414C964.429 -178.572 954.456 -40.7909 863.384 37.3289C772.313 115.449 634.619 104.335 555.838 12.4927C477.058 -79.3492 487.032 -217.13 578.103 -295.249Z" fill="url(#paint4_radial_2668_3453)" stroke="url(#paint5_linear_2668_3453)" stroke-width="1.04705"/>
</g>
<g filter="url(#filter0_f_2668_3453)">
<path d="M691.74 197.471C766.205 197.471 826.572 146.938 826.572 84.6023C826.572 22.2665 766.205 -28.2666 691.74 -28.2666C617.274 -28.2666 556.907 22.2665 556.907 84.6023C556.907 146.938 617.274 197.471 691.74 197.471Z" fill="#006900" fill-opacity="0.74"/>
</g>
</g>
<defs>
<filter id="filter0_f_2668_3453" x="156.907" y="-428.267" width="1069.67" height="1025.74" filterUnits="userSpaceOnUse" color-interpolation-filters="sRGB">
<feFlood flood-opacity="0" result="BackgroundImageFix"/>
<feBlend mode="normal" in="SourceGraphic" in2="BackgroundImageFix" result="shape"/>
<feGaussianBlur stdDeviation="200" result="effect1_foregroundBlur_2668_3453"/>
</filter>
<radialGradient id="paint0_radial_2668_3453" cx="0" cy="0" r="1" gradientTransform="matrix(7.80577 -102.463 102.401 8.66029 717.22 -20.6646)" gradientUnits="userSpaceOnUse">
<stop stop-color="#D9D9D9"/>
<stop offset="1" stop-color="#D9D9D9" stop-opacity="0"/>
</radialGradient>
<linearGradient id="paint1_linear_2668_3453" x1="621.759" y1="-244.36" x2="819.734" y2="-13.5631" gradientUnits="userSpaceOnUse">
<stop stop-color="#0E1821" stop-opacity="0"/>
<stop offset="1" stop-color="#0E1821"/>
</linearGradient>
<radialGradient id="paint2_radial_2668_3453" cx="0" cy="0" r="1" gradientTransform="matrix(14.8526 -194.965 194.847 16.4786 714.033 77.1043)" gradientUnits="userSpaceOnUse">
<stop stop-color="#D9D9D9"/>
<stop offset="1" stop-color="#D9D9D9" stop-opacity="0"/>
</radialGradient>
<linearGradient id="paint3_linear_2668_3453" x1="532.394" y1="-348.538" x2="909.095" y2="90.6167" gradientUnits="userSpaceOnUse">
<stop stop-color="#0E1821" stop-opacity="0"/>
<stop offset="1" stop-color="#0E1821"/>
</linearGradient>
<radialGradient id="paint4_radial_2668_3453" cx="0" cy="0" r="1" gradientTransform="matrix(11.275 -148.003 147.913 12.5093 715.649 27.4682)" gradientUnits="userSpaceOnUse">
<stop stop-color="#D9D9D9"/>
<stop offset="1" stop-color="#D9D9D9" stop-opacity="0"/>
</radialGradient>
<linearGradient id="paint5_linear_2668_3453" x1="577.762" y1="-295.647" x2="863.725" y2="37.7259" gradientUnits="userSpaceOnUse">
<stop stop-color="#0E1821" stop-opacity="0"/>
<stop offset="1" stop-color="#0E1821"/>
</linearGradient>
<clipPath id="clip0_2668_3453">
<rect width="1440" height="631" fill="white" transform="translate(0.744141 0.702148)"/>
</clipPath>
</defs>
</svg>
