<svg width="97" height="36" viewBox="0 0 97 36" fill="none" xmlns="http://www.w3.org/2000/svg">
<path d="M34.6787 14.957C35.6339 14.957 36.5375 15.1333 37.3637 15.4857C38.1898 15.8382 38.9256 16.3165 39.5581 16.9207C40.1906 17.5249 40.6811 18.2298 41.0425 19.048C41.404 19.8537 41.5847 20.7222 41.5847 21.6663C41.5847 22.5852 41.404 23.4537 41.0425 24.2719C40.6811 25.0901 40.1906 25.8076 39.5581 26.4244C38.9256 27.0412 38.1898 27.5196 37.3637 27.872C36.5375 28.2245 35.6469 28.4007 34.6787 28.4007H30.5481V33.7757H27.8115V21.6789C27.8115 20.7474 27.9922 19.8662 28.3537 19.0606C28.7151 18.255 29.2056 17.5501 29.8252 16.9333C30.4448 16.3291 31.1806 15.8508 32.0196 15.4983C32.8458 15.1207 33.7364 14.957 34.6787 14.957ZM36.3052 25.3922C36.8215 25.1783 37.2604 24.8887 37.6347 24.5237C38.0091 24.1587 38.306 23.7181 38.5254 23.2272C38.7449 22.7237 38.8481 22.2076 38.8481 21.6411C38.8481 21.0872 38.7449 20.5586 38.5254 20.0676C38.306 19.5767 38.0091 19.1487 37.6347 18.7837C37.2604 18.4187 36.8086 18.1291 36.3052 17.9151C35.7889 17.7012 35.2467 17.6005 34.6787 17.6005C34.1108 17.6005 33.5686 17.7012 33.0652 17.9151C32.5618 18.1291 32.1229 18.4187 31.7486 18.7837C31.3742 19.1487 31.0773 19.5767 30.8579 20.0676C30.6384 20.5586 30.5352 21.0747 30.5352 21.6411V25.7069H34.6658C35.2467 25.7069 35.7889 25.6062 36.3052 25.3922Z" fill="#3CC35E"/>
<path d="M55.619 14.8945V17.5505H47.3189C46.9317 17.5505 46.609 17.6764 46.3379 17.9408C46.0668 18.2051 45.9377 18.5198 45.9377 18.8974C45.9377 19.2751 46.0668 19.6023 46.3379 19.8667C46.609 20.131 46.9317 20.2695 47.3189 20.2695H52.8308C53.3987 20.2695 53.9409 20.3702 54.4443 20.5842C54.9477 20.7982 55.3866 21.0751 55.7609 21.4401C56.1353 21.7926 56.4322 22.2206 56.6516 22.7115C56.8711 23.2024 56.9743 23.7185 56.9743 24.285C56.9743 24.8388 56.8711 25.3675 56.6516 25.8584C56.4322 26.3494 56.1353 26.7773 55.7609 27.1424C55.3866 27.5074 54.9477 27.7969 54.4443 28.0109C53.9409 28.2249 53.4116 28.3256 52.8308 28.3256H44.5565V25.6696H52.8308C53.2438 25.6696 53.5794 25.5437 53.8376 25.2794C54.1087 25.0151 54.2378 24.6878 54.2378 24.2976C54.2378 23.9199 54.1087 23.6052 53.8376 23.3409C53.5665 23.0765 53.2309 22.9507 52.8308 22.9507H47.3189C46.751 22.9507 46.2088 22.85 45.7054 22.636C45.202 22.422 44.776 22.1325 44.4016 21.7674C44.0402 21.4024 43.7433 20.9744 43.5239 20.4835C43.3044 19.9926 43.2012 19.4765 43.2012 18.91C43.2012 18.3562 43.3044 17.8275 43.5239 17.3365C43.7433 16.8456 44.0273 16.4302 44.4016 16.0652C44.7631 15.7127 45.202 15.4232 45.7054 15.2092C46.2088 14.9952 46.738 14.8945 47.3189 14.8945H55.619Z" fill="#3CC35E"/>
<path d="M61.332 9.50586V28.2993H58.6084V9.50586H61.332Z" fill="#3CC35E"/>
<path d="M76.7233 14.9199V26.9915C76.7233 27.923 76.7233 30.6379 76.1812 31.8463C75.8198 32.6519 75.3293 33.3694 74.7097 33.9862C74.0901 34.603 73.3672 35.0813 72.5281 35.4338C71.702 35.7863 70.8113 35.9625 69.8432 35.9625H63.9294V33.3065H69.8432C70.4112 33.3065 70.9533 33.2058 71.4568 32.9918C71.9602 32.7778 72.3991 32.4883 72.7734 32.1232C73.1477 31.7582 73.4446 31.3176 73.6641 30.8267C74.0947 29.8632 73.9868 27.5706 73.9868 27.0041V26.9664C73.4188 27.4069 72.7734 27.7468 72.0764 27.986C71.3664 28.2251 70.6306 28.3384 69.8561 28.3384C68.9138 28.3384 68.0232 28.1622 67.1841 27.8097C66.3451 27.4573 65.6093 26.979 64.9768 26.3622C64.3443 25.7454 63.8538 25.0279 63.4923 24.2097C63.1309 23.3915 62.9502 22.5229 62.9502 21.604V14.9199H65.6738V21.6166C65.6738 22.1704 65.7771 22.6991 65.9966 23.2026C66.216 23.7062 66.5129 24.1341 66.8872 24.4992C67.2616 24.8642 67.7134 25.1537 68.2168 25.3677C68.7331 25.5817 69.2624 25.6824 69.8432 25.6824C70.4112 25.6824 70.9533 25.5817 71.4568 25.3677C71.9602 25.1537 72.3991 24.8642 72.7734 24.4992C73.1477 24.1341 73.4446 23.6936 73.6641 23.2026C73.8835 22.6991 73.9868 22.183 73.9868 21.6166V14.9199H76.7233Z" fill="#3CC35E"/>
<path d="M83.6064 12.49C83.0901 12.704 82.6512 12.9935 82.2769 13.3586C81.9025 13.7236 81.6056 14.1516 81.3862 14.6425C81.1668 15.1334 81.0635 15.6495 81.0635 16.216V17.588H86.5753V20.2441H81.0635V28.3128H78.3398V16.2034C78.3398 15.2719 78.5206 14.3908 78.882 13.5851C79.2434 12.7795 79.7339 12.0746 80.3664 11.4578C80.999 10.8536 81.7347 10.3753 82.5738 10.0228C83.4128 9.67037 84.3035 9.49414 85.2458 9.49414H86.5882V12.1501H85.22C84.652 12.1753 84.1099 12.276 83.6064 12.49Z" fill="#3CC35E"/>
<path d="M96.4672 25.6433V28.2993H95.1247C94.1824 28.2993 93.2917 28.1231 92.4527 27.7706C91.6136 27.4182 90.8779 26.9398 90.2454 26.323C89.6128 25.7063 89.1223 24.9888 88.7609 24.1706C88.3995 23.3524 88.2188 22.4838 88.2188 21.5649V9.50586H90.9424V17.5746H96.4542V20.2306H90.9424V21.5775C90.9424 22.1313 91.0457 22.66 91.2651 23.1635C91.4846 23.667 91.7814 24.095 92.1558 24.4601C92.5301 24.8251 92.9819 25.1146 93.4853 25.3286C94.0017 25.5426 94.5309 25.6433 95.1118 25.6433H96.4672Z" fill="#3CC35E"/>
<path d="M18.1263 4.85185C18.1263 4.52592 18.3905 4.26172 18.7164 4.26172H25.6359C25.9619 4.26172 26.2261 4.52594 26.2261 4.85188V11.6028C26.2261 11.9216 25.973 12.1827 25.6545 12.1927L25.0754 12.2109C24.7698 12.2205 24.5074 11.995 24.471 11.6914L23.9142 7.05623C23.8814 6.78371 23.6652 6.56974 23.3923 6.53994L18.6523 6.02232C18.353 5.98962 18.1262 5.73676 18.1262 5.43561L18.1263 4.85185Z" fill="#3CC35E"/>
<path d="M14.9182 8.98188C14.9182 8.57446 15.2485 8.24418 15.6559 8.24418L21.437 8.24414C21.8444 8.24414 22.1747 8.57442 22.1747 8.98185V14.7445C22.1747 15.1519 21.8445 15.4822 21.437 15.4822H21.1149C20.7411 15.4822 20.4263 15.2026 20.3823 14.8313L19.9364 11.0688C19.8958 10.7265 19.6236 10.458 19.2809 10.422L15.5789 10.0331C15.2034 9.99364 14.9182 9.677 14.9182 9.29942V8.98188Z" fill="#3CC35E"/>
<path d="M24.453 14.2454C24.9203 14.1105 25.4122 14.3774 25.518 14.8521C26.0591 17.2788 25.877 19.8128 24.984 22.138C23.9861 24.7365 22.1558 26.9298 19.7755 28.3795C17.3953 29.8292 14.5974 30.4548 11.8136 30.1596C9.02976 29.8645 6.41477 28.665 4.3721 26.7464C2.32943 24.8277 0.972622 22.2965 0.511038 19.5433C0.0494538 16.7901 0.508748 13.9679 1.81805 11.5123C3.12735 9.05662 5.21389 7.10398 7.75569 5.95565C10.0302 4.9281 12.556 4.59567 15.0176 4.98935C15.4988 5.06631 15.7954 5.54251 15.6877 6.01783L15.4789 6.93928C15.3705 7.41761 14.894 7.71255 14.4083 7.64456C12.5354 7.3824 10.623 7.6526 8.89525 8.43317C6.89753 9.33569 5.25763 10.8704 4.22859 12.8004C3.19956 14.7304 2.83858 16.9484 3.20136 19.1123C3.56414 21.2762 4.63051 23.2656 6.23593 24.7735C7.84136 26.2815 9.8966 27.2242 12.0845 27.4561C14.2724 27.6881 16.4714 27.1965 18.3422 26.0571C20.2129 24.9177 21.6514 23.1938 22.4357 21.1516C23.1135 19.3868 23.2702 17.469 22.8972 15.6219C22.7999 15.1402 23.0666 14.6458 23.5387 14.5094L24.453 14.2454Z" fill="#3CC35E"/>
</svg>
