<svg width="19" height="15" viewBox="0 0 19 15" fill="none" xmlns="http://www.w3.org/2000/svg">
<path d="M18.6262 2.29373C17.974 2.5902 17.2709 2.78502 16.5425 2.8782C17.2879 2.42926 17.8639 1.71773 18.1349 0.862198C17.4319 1.28573 16.6526 1.5822 15.8309 1.75161C15.1618 1.02314 14.2215 0.599609 13.1542 0.599609C11.1636 0.599609 9.53729 2.22596 9.53729 4.23349C9.53729 4.52149 9.57117 4.80102 9.63047 5.06361C6.61494 4.91114 3.92976 3.46267 2.14247 1.26879C1.82906 1.80243 1.65117 2.42926 1.65117 3.08996C1.65117 4.35208 2.28647 5.4702 3.26906 6.10549C2.66764 6.10549 2.10859 5.93608 1.61729 5.68196V5.70737C1.61729 7.46926 2.87094 8.94314 4.53117 9.27349C3.99814 9.41936 3.43855 9.43966 2.89635 9.33279C3.12642 10.0549 3.57699 10.6867 4.18474 11.1395C4.79249 11.5923 5.52685 11.8432 6.28459 11.857C5.00013 12.8739 3.40797 13.4235 1.76976 13.4156C1.48176 13.4156 1.19376 13.3987 0.905762 13.3648C2.51517 14.3982 4.42953 14.9996 6.47941 14.9996C13.1542 14.9996 16.822 9.45984 16.822 4.65702C16.822 4.49608 16.822 4.34361 16.8135 4.18267C17.5251 3.67443 18.1349 3.03067 18.6262 2.29373Z" fill="#E8E8E8"/>
</svg>
