<svg width="49" height="49" viewBox="0 0 49 49" fill="none" xmlns="http://www.w3.org/2000/svg">
<rect opacity="0.1" x="0.496094" y="0.975586" width="48" height="48" rx="14" fill="#24823D"/>
<path d="M30.9938 37.9756H17.9938C15.8397 37.9756 14.0938 36.2297 14.0938 34.0756V15.8756C14.0938 13.7215 15.8397 11.9756 17.9938 11.9756H27.0938L34.8938 19.7756V34.0756C34.8938 36.2297 33.1479 37.9756 30.9938 37.9756Z" fill="#24823D"/>
<path d="M27.0938 17.1756V11.9756L34.8938 19.7756H29.6938C28.2573 19.7756 27.0938 18.6121 27.0938 17.1756Z" fill="#D5D5D5" fill-opacity="0.5"/>
<path d="M18.7827 31.513C18.5154 31.513 18.247 31.4205 18.0311 31.2309C17.556 30.8151 17.508 30.0932 17.9226 29.6192L21.9204 25.0504C22.1397 24.7968 22.4298 24.6711 22.7942 24.6597C23.1288 24.6643 23.4441 24.8139 23.6588 25.0698L25.6189 27.4227L29.3128 22.8036C29.7091 22.3125 30.4253 22.2302 30.9187 22.6254C31.411 23.0206 31.491 23.7391 31.0969 24.2314L26.5281 29.9425C26.3133 30.2097 25.9901 30.3674 25.6474 30.3708C25.2899 30.4222 24.9781 30.2223 24.7588 29.9607L22.7599 27.5609L19.6428 31.1224C19.4166 31.3817 19.1002 31.513 18.7827 31.513Z" fill="#EDECFF"/>
</svg>
