<svg width="49" height="49" viewBox="0 0 49 49" fill="none" xmlns="http://www.w3.org/2000/svg">
<rect opacity="0.1" x="0.746094" y="0.975586" width="48" height="48" rx="14" fill="#24823D"/>
<path opacity="0.3" d="M34.8572 26.4198C34.8572 28.7053 34.1795 30.9394 32.9097 32.8397C31.64 34.74 29.8353 36.2211 27.7238 37.0958C25.6123 37.9704 23.2888 38.1992 21.0473 37.7533C18.8057 37.3075 16.7467 36.2069 15.1306 34.5908C13.5146 32.9748 12.414 30.9157 11.9681 28.6742C11.5223 26.4326 11.7511 24.1092 12.6257 21.9977C13.5003 19.8862 14.9814 18.0815 16.8817 16.8117C18.782 15.542 21.0162 14.8643 23.3016 14.8643V26.4198H34.8572Z" fill="#24823D"/>
<path d="M26.1884 11.9758C27.7059 11.9758 29.2085 12.2747 30.6105 12.8554C32.0125 13.4361 33.2863 14.2873 34.3594 15.3603C35.4324 16.4334 36.2836 17.7073 36.8643 19.1092C37.445 20.5112 37.7439 22.0139 37.7439 23.5314L26.1884 23.5314L26.1884 11.9758Z" fill="#24823D"/>
</svg>
