<svg width="48" height="49" viewBox="0 0 48 49" fill="none" xmlns="http://www.w3.org/2000/svg">
<rect opacity="0.1" x="-0.00390625" y="0.975586" width="48" height="48" rx="14" fill="#091F0F" fill-opacity="0.5"/>
<path d="M30.4938 37.9756H17.4938C15.3397 37.9756 13.5938 36.2297 13.5938 34.0756V15.8756C13.5938 13.7215 15.3397 11.9756 17.4938 11.9756H26.5938L34.3938 19.7756V34.0756C34.3938 36.2297 32.6479 37.9756 30.4938 37.9756Z" fill="#091F0F" fill-opacity="0.5"/>
<path d="M26.5938 17.1756V11.9756L34.3938 19.7756H29.1938C27.7573 19.7756 26.5938 18.6121 26.5938 17.1756Z" fill="#D5D5D5" fill-opacity="0.5"/>
<path d="M18.2827 31.513C18.0154 31.513 17.747 31.4205 17.5311 31.2309C17.056 30.8151 17.008 30.0932 17.4226 29.6192L21.4204 25.0504C21.6397 24.7968 21.9298 24.6711 22.2942 24.6597C22.6288 24.6643 22.9441 24.8139 23.1588 25.0698L25.1189 27.4227L28.8128 22.8036C29.2091 22.3125 29.9253 22.2302 30.4187 22.6254C30.911 23.0206 30.991 23.7391 30.5969 24.2314L26.0281 29.9425C25.8133 30.2097 25.4901 30.3674 25.1474 30.3708C24.7899 30.4222 24.4781 30.2223 24.2588 29.9607L22.2599 27.5609L19.1428 31.1224C18.9166 31.3817 18.6002 31.513 18.2827 31.513Z" fill="#EDECFF"/>
</svg>
