<svg width="48" height="49" viewBox="0 0 48 49" fill="none" xmlns="http://www.w3.org/2000/svg">
<rect opacity="0.1" x="-0.00390625" y="0.975586" width="48" height="48" rx="14" fill="#091F0F" fill-opacity="0.5"/>
<path opacity="0.3" d="M34.1072 26.4198C34.1072 28.7053 33.4295 30.9394 32.1597 32.8397C30.89 34.74 29.0853 36.2211 26.9738 37.0958C24.8623 37.9704 22.5388 38.1992 20.2973 37.7533C18.0557 37.3075 15.9967 36.2069 14.3806 34.5908C12.7646 32.9748 11.664 30.9157 11.2181 28.6742C10.7723 26.4326 11.0011 24.1092 11.8757 21.9977C12.7503 19.8862 14.2314 18.0815 16.1317 16.8117C18.032 15.542 20.2662 14.8643 22.5516 14.8643V26.4198H34.1072Z" fill="#091F0F" fill-opacity="0.5"/>
<path d="M25.4384 11.9758C26.9559 11.9758 28.4585 12.2747 29.8605 12.8554C31.2625 13.4361 32.5363 14.2873 33.6094 15.3603C34.6824 16.4334 35.5336 17.7073 36.1143 19.1092C36.695 20.5112 36.9939 22.0139 36.9939 23.5314L25.4384 23.5314L25.4384 11.9758Z" fill="#091F0F" fill-opacity="0.5"/>
</svg>
