<svg width="800" height="800" viewBox="0 0 800 800" fill="none" xmlns="http://www.w3.org/2000/svg">
<rect width="800" height="800.001" fill="#0E1821"/>
<path d="M490.469 163.899C490.469 157.825 495.393 152.902 501.468 152.902H630.421C636.495 152.902 641.419 157.826 641.419 163.9V289.712C641.419 295.652 636.703 300.519 630.766 300.705L619.975 301.044C614.279 301.223 609.39 297.021 608.71 291.363L598.334 204.981C597.724 199.902 593.693 195.914 588.608 195.359L500.273 185.712C494.694 185.103 490.468 180.391 490.468 174.778L490.469 163.899Z" fill="#3CC35E"/>
<path d="M430.708 240.879C430.708 233.286 436.863 227.131 444.456 227.131L552.193 227.13C559.786 227.13 565.942 233.285 565.942 240.878V348.273C565.942 355.865 559.786 362.021 552.194 362.021H546.19C539.223 362.021 533.358 356.809 532.538 349.891L524.227 279.771C523.471 273.393 518.399 268.388 512.011 267.717L443.02 260.469C436.021 259.734 430.708 253.833 430.708 246.797V240.879Z" fill="#3CC35E"/>
<path d="M608.335 338.975C617.044 336.461 626.211 341.435 628.183 350.282C638.266 395.506 634.873 442.73 618.231 486.063C599.634 534.489 565.524 575.364 521.165 602.381C476.806 629.399 424.664 641.056 372.784 635.556C320.905 630.056 272.171 607.703 234.103 571.946C196.036 536.19 170.75 489.017 162.148 437.708C153.546 386.398 162.105 333.804 186.506 288.04C210.906 242.276 249.791 205.886 297.161 184.485C339.548 165.336 386.621 159.141 432.495 166.477C441.463 167.912 446.99 176.786 444.983 185.644L441.092 202.817C439.072 211.731 430.192 217.227 421.14 215.96C386.236 211.075 350.597 216.11 318.398 230.657C281.168 247.477 250.606 276.077 231.429 312.045C212.252 348.013 205.524 389.349 212.285 429.676C219.046 470.002 238.919 507.077 268.838 535.179C298.757 563.282 337.059 580.85 377.834 585.173C418.608 589.496 459.589 580.334 494.452 559.1C529.316 537.866 556.125 505.74 570.741 467.68C583.372 434.791 586.292 399.051 579.341 364.628C577.529 355.651 582.497 346.437 591.296 343.896L608.335 338.975Z" fill="#3CC35E"/>
</svg>
