<svg width="15" height="15" viewBox="0 0 15 15" fill="none" xmlns="http://www.w3.org/2000/svg">
<path d="M13.3073 0.599609C13.7317 0.599609 14.1386 0.76818 14.4387 1.06824C14.7388 1.3683 14.9073 1.77526 14.9073 2.19961V13.3996C14.9073 13.824 14.7388 14.2309 14.4387 14.531C14.1386 14.831 13.7317 14.9996 13.3073 14.9996H2.10732C1.68298 14.9996 1.27601 14.831 0.975953 14.531C0.675895 14.2309 0.507324 13.824 0.507324 13.3996V2.19961C0.507324 1.77526 0.675895 1.3683 0.975953 1.06824C1.27601 0.76818 1.68298 0.599609 2.10732 0.599609H13.3073ZM12.9073 12.9996V8.75961C12.9073 8.06792 12.6326 7.40457 12.1435 6.91547C11.6544 6.42638 10.991 6.15161 10.2993 6.15161C9.61932 6.15161 8.82732 6.56761 8.44332 7.19161V6.30361H6.21132V12.9996H8.44332V9.05561C8.44332 8.43961 8.93932 7.93561 9.55532 7.93561C9.85237 7.93561 10.1372 8.05361 10.3473 8.26365C10.5573 8.47369 10.6753 8.75857 10.6753 9.05561V12.9996H12.9073ZM3.61132 5.04761C3.96778 5.04761 4.30963 4.90601 4.56168 4.65396C4.81372 4.40191 4.95532 4.06006 4.95532 3.70361C4.95532 2.95961 4.35532 2.35161 3.61132 2.35161C3.25275 2.35161 2.90886 2.49405 2.65532 2.7476C2.40177 3.00115 2.25932 3.34504 2.25932 3.70361C2.25932 4.44761 2.86732 5.04761 3.61132 5.04761ZM4.72332 12.9996V6.30361H2.50732V12.9996H4.72332Z" fill="#E8E8E8"/>
</svg>
