<svg width="104" height="103" viewBox="0 0 104 103" fill="none" xmlns="http://www.w3.org/2000/svg">
<mask id="path-2-inside-1_1358_4548" fill="white">
<path d="M6.20563 54.1615L6.20757 54.1985L6.30014 54.4921L5.90286 57.2751L5.49591 50.2525L5.80643 47.3392L6.20563 54.1615ZM38.2688 6.73583L38.0335 6.93422L33.5746 7.98635L33.7019 7.93579L39.3373 5.75178L42.7258 5.01276L38.2688 6.73583ZM61.2482 4.73661L60.8471 4.76772L59.5376 4.37876L64.6002 5.33559L64.849 5.42116L61.2482 4.73661ZM43.3989 94.866L43.6072 94.9535L51.9832 96.3324L48.1472 96.7272L40.1299 95.4106L43.3989 94.866ZM38.8493 95.2005L30.1281 91.4976L33.0789 90.465L33.104 90.4824L42.8917 94.6501L39.2215 95.2608L38.8493 95.2005ZM14.1843 77.6138L15.6771 75.0778L23.3896 83.4968L21.0926 85.2704L20.865 85.109L14.7263 78.4111L14.1843 77.6138ZM9.84493 65.278L15.4726 74.8502L14.0146 77.324L8.97899 68.7494L8.93462 68.6074L9.84493 65.278ZM9.56914 64.7937L9.57878 64.8248L9.64436 64.9357L8.77263 68.094L6.02822 59.4241L5.98965 58.7532L6.50651 55.1378L9.56914 64.7937ZM23.0559 14.8651L22.4195 15.3338L23.135 14.7328L23.0559 14.8651ZM46.3844 4.21927L46.8184 4.18816L53.1288 5.56895L47.2523 7.85215L47.1597 7.92994L39.3315 6.95949L46.3844 4.21927ZM86.9798 21.3704L82.787 16.8312L83.5256 15.2871L88.9585 21.1545L86.9798 21.3704ZM95.9883 35.6276L92.081 32.3118L92.0732 32.2243L90.3298 27.1017L93.5313 28.5486L93.6026 28.6673L95.1204 33.0955L95.9883 35.6276ZM97.8224 41.2539L98.4319 47.9557L97.4521 44.2664L97.5042 43.9961L97.5119 43.9553L97.051 38.8696L97.8224 41.2539ZM97.2843 57.9422L96.0847 51.2871L96.1696 51.1315L97.3268 44.9393L98.59 49.7041L98.6633 50.5112L97.2843 57.9422ZM72.5981 91.3265L67.2019 93.6797L70.3108 91.8205L70.5981 91.7913L70.6425 91.7855L75.1574 89.8193L72.5981 91.3265ZM55.123 96.0057L60.0853 92.8629L60.2338 92.8882L69.6107 91.8944L65.0669 94.6112L64.0563 95.0508L55.123 96.0057ZM9.49392 38.3251L10.1014 48.4711L10.1034 48.508L10.1304 48.5877L6.75723 53.5081L6.18829 43.7997L6.26735 43.4555L9.49392 38.3251ZM11.303 29.4413L9.46115 37.5783L9.4515 37.6191L9.46499 37.833L6.46408 42.592L8.3194 34.4297L11.303 29.4413ZM27.6017 19.3478L27.5785 19.3886L27.565 19.445L19.2681 22.3739L23.6981 14.939L23.8891 14.7795L31.5958 12.5994L27.6017 19.3478ZM41.8271 12.613L38.5157 18.2665L28.3133 19.3031L32.3422 12.4924L32.3923 12.4516L41.8271 12.613ZM61.3813 10.0906L61.2733 10.1334L54.5424 5.82764L61.2154 5.33365L61.3717 5.36475L66.1276 9.72888L61.3813 10.0906ZM77.2885 12.9767L72.2568 10.7518L72.1082 10.7227L69.5567 7.08009L76.4303 10.114L76.5113 10.1742L77.2885 12.9767ZM82.5497 16.6504L77.734 13.1731L77.6376 13.1303L76.8931 10.4484L83.3038 15.0673L82.5497 16.6504ZM93.1455 66.3476L87.4369 71.5538L87.7358 61.8629L87.757 61.8551L92.5072 57.5532L93.2072 66.2329L93.1455 66.3476ZM84.3356 80.7138L76.139 84.2669L79.4794 75.7604L86.9778 72.5515L84.4571 80.6029L84.3356 80.7138ZM13.625 59.5564L13.6327 59.5778L10.0146 64.2492L6.79002 54.0896L6.78422 53.9865L10.2403 48.9378L13.625 59.5564ZM16.2865 32.2282L16.2788 32.2709L16.2826 32.341L10.1651 37.129L12.2518 27.9088L12.4003 27.6637L18.3038 23.2219L16.2865 32.2282ZM25.6692 28.0605L25.6615 28.0936L16.9499 31.9656L18.9923 22.8387L19.0309 22.7726L27.4898 19.7854L25.6692 28.0605ZM96.9179 43.9261L95.7087 50.3984L91.5622 42.8876L91.5679 42.8778L92.4686 38.1987L96.9044 43.788L96.9179 43.9261ZM89.1996 47.1933L89.2054 47.1875L91.3943 43.1929L95.6219 50.8534L95.6084 50.9293L92.5747 56.5147L89.1996 47.1933ZM92.3818 56.8706L87.6586 61.1453L85.5912 50.4275L88.9624 47.4053L92.3876 56.8609L92.3818 56.8706ZM87.1128 71.8513L79.6433 75.0603L81.2672 64.6109L87.4369 61.9913L87.1341 71.83L87.1128 71.8513ZM75.7282 84.4439L66.091 85.4415L70.4053 76.6764L79.1477 75.7993L75.7649 84.4283L75.7282 84.4439ZM70.4921 91.2059L60.7044 92.2405L65.7188 86.0658L65.7573 86.0736L75.3483 85.0798L70.6637 91.1301L70.4921 91.2059ZM28.3191 79.3019L38.02 86.2389L33.3875 89.9593L24.0665 83.3062L28.3191 79.3019ZM19.9586 70.2274L28.0973 79.1054L23.8409 83.1136L16.0261 74.5916L19.9586 70.2274ZM13.7909 59.852L19.7676 69.9999L15.8545 74.3407L10.1246 64.5895L13.7909 59.852ZM16.9384 42.8467L10.6646 48.0374L10.0436 37.6697L10.0629 37.5861L16.3039 32.693L16.9384 42.8467ZM50.4133 19.6317L49.4104 24.412L37.5996 25.295L39.0499 18.5621L50.4133 19.6317ZM50.4962 19.3439L39.1907 18.2801L42.4713 12.683L52.8009 15.361L50.4962 19.3439ZM77.383 13.6593L76.654 19.2603L74.0446 18.1051L74.0099 18.0993L72.3956 11.4597L77.383 13.6593ZM81.7185 23.6225L79.6298 21.3568L82.4688 17.3563L86.3607 21.561L81.7185 23.6225ZM83.435 26.4308L81.8921 23.8694L86.5535 21.7924L89.4619 26.5941L83.435 26.4308ZM84.4437 29.3907L83.5488 26.7302L89.6335 26.8839L91.3654 31.9501L84.4437 29.3907ZM91.9672 37.6891L91.0935 42.2963L84.1717 34.9606L84.6365 32.6191L91.9672 37.6794V37.6891ZM81.3 63.9536L80.9818 52.3568L85.3192 50.5559L87.4021 61.3631L81.3 63.9536ZM79.3309 75.1847L70.6386 76.056L73.8112 65.3382L80.9644 64.6498L79.3309 75.1847ZM65.7515 85.4707L55.4103 83.734L60.7545 75.0291L70.1005 76.6316L65.7515 85.4707ZM17.0329 43.1501L20.3771 53.5645L14.0995 59.1032L10.6877 48.4011L17.0329 43.1501ZM26.3635 37.8797L29.4049 47.2692L20.8747 53.1852L17.5382 42.7962L26.3635 37.8797ZM37.5841 33.4709L40.0836 41.1353L29.9199 46.9483L26.8996 37.6269L37.5841 33.4709ZM65.8441 18.7371L57.2541 12.3407L61.4681 10.6779L67.9906 17.8912L65.8441 18.7371ZM88.8717 46.571L82.9355 37.2321L84.0367 35.2484L91.0241 42.6464L88.8717 46.571ZM73.9424 64.7295L75.6781 52.8857L80.6925 52.4248L81.0107 64.0488L73.9424 64.7295ZM70.3301 76.0676L61.04 74.4846L65.8827 63.9749L73.5161 65.3071L70.3301 76.0676ZM55.1075 83.6679L44.8377 79.2766L51.1905 70.9412L60.4691 74.9338L55.1075 83.6679ZM44.4481 79.7472L54.7411 84.156L49.314 90.4708L38.7413 85.9647L44.4481 79.7472ZM20.5179 53.8329L26.3693 63.7338L20.1958 69.5662L14.2075 59.3969L20.5179 53.8329ZM29.5438 47.5317L34.8282 56.4544L26.8167 63.3332L20.9865 53.4653L29.5438 47.5317ZM40.2167 41.3979L44.5445 48.6772L35.2872 56.0733L30.0375 47.2206L40.2167 41.3979ZM49.8617 30.2503L51.6283 35.6199L40.614 40.8592L38.1357 33.2939L49.8617 30.2503ZM62.5192 22.8912L62.0351 25.2639L50.0102 24.4159L50.9919 19.7387L62.5192 22.8912ZM63.7439 20.6314L62.6156 22.6092L51.1076 19.4645L53.3641 15.5652L63.7439 20.6314ZM63.9155 20.3863L53.582 15.3455L56.9397 12.4749L65.605 18.9277L63.9155 20.3863ZM74.2953 27.1678L74.0831 18.7702L76.5325 19.8476L74.2953 27.1678ZM75.302 28.3833L83.8747 29.5541L84.0849 31.987L75.302 28.3833ZM81.0473 38.9299L82.7252 37.4441L88.7001 46.8472L85.4002 49.8052L81.0473 38.9299ZM73.6453 64.7295L66.1026 63.4187L70.0388 51.9095L75.3849 52.8643L73.6453 64.7295ZM60.7507 74.4107L51.5357 70.4531L58.0294 60.6124L65.5992 63.8874L60.7507 74.4107ZM44.5715 79.1385L35.1329 72.3901L42.4018 64.679L50.934 70.7934L44.5715 79.1385ZM34.7221 72.816L44.1896 79.5936L38.4655 85.8305L28.7434 78.8857L34.7221 72.816ZM26.5544 63.9633L34.5003 72.6215L28.5197 78.6931L20.3674 69.8093L26.5544 63.9633ZM35.0114 56.6859L42.1781 64.4864L34.9092 72.1956L26.9903 63.5724L35.0114 56.6859ZM44.7277 48.9106L50.583 55.2778L42.5793 64.0508L35.4627 56.3125L44.7277 48.9106ZM51.7575 35.8844L54.8009 40.9836L45.0151 48.3155L40.7355 41.1295L51.7575 35.8844ZM73.0687 27.0823L64.442 20.7131L66.0485 19.3245L73.0687 27.0823ZM73.3348 26.9344L66.3205 19.1844L68.3532 18.3735L73.3348 26.9344ZM73.6608 26.9092L68.6695 18.3307L70.9954 18.1459L73.6608 26.9092ZM74.5402 27.3681L76.789 20.011L79.0493 21.6388L74.5402 27.3681ZM74.7562 27.5743L79.2692 21.8371L81.1785 23.9006L74.7562 27.5743ZM74.9626 27.796L81.3656 24.1359L82.7889 26.4891L74.9626 27.796ZM82.9393 26.7652L83.7821 29.2449L75.1574 28.0644L82.9393 26.7652ZM75.3464 28.7217L84.0984 32.3138L83.6664 34.5463L75.3464 28.7217ZM78.6366 39.947L80.7889 39.0719L85.1572 49.9822L80.9123 51.7597L78.6366 39.947ZM65.821 63.339L58.3399 60.1087L64.4536 49.5212L69.7553 51.8297L65.821 63.339ZM54.9822 41.217L59.0901 45.6803L50.9784 54.8364L45.1906 48.5508L54.9822 41.217ZM62.2858 28.4631L63.1711 31.1372L52.1722 35.3865L50.4364 30.1395L62.2858 28.4631ZM75.2692 29.029L83.5854 34.8478L82.5401 36.7323L75.2692 29.029ZM75.8594 40.2427L78.3512 40.0248L80.6288 51.8355L75.7225 52.2848L75.8594 40.2427ZM72.9067 39.7428L75.5682 40.231L75.4312 52.2712L70.1989 51.3435L72.9067 39.7428ZM63.2984 31.4055L64.82 33.9532L55.2792 40.6374L52.2995 35.6549L63.2984 31.4055ZM63.7284 30.9485L62.8837 28.4203L73.059 28.2452L63.7284 30.9485ZM80.5209 38.5429L78.4765 39.385L74.8006 29.3674L80.5209 38.5429ZM75.0764 29.2526L82.3646 36.9735L80.7696 38.3873L75.0764 29.2526ZM64.9994 34.1866L67.0553 36.4211L59.4797 45.233L55.4585 40.8728L64.9994 34.1866ZM65.3099 33.6226L63.8654 31.2169L73.2423 28.502L65.3099 33.6226ZM75.8266 39.6495L74.4862 29.3674L78.1853 39.4434L75.8266 39.6495ZM67.4391 35.966L65.4912 33.8579L73.4428 28.7236L67.4391 35.966ZM74.1776 29.2702L75.5277 39.6203L73.0089 39.1672L74.1776 29.2702ZM70.2221 37.975L73.8999 29.1126L72.7235 39.068L70.2221 37.975ZM69.9675 37.8214L67.6589 36.1625L73.6588 28.9259L69.9675 37.8214ZM64.4767 48.8561L59.7015 45.4275L67.279 36.6117L69.7187 38.3698L64.4767 48.8561ZM69.9192 51.256L64.7313 49.0039L69.9791 38.5079L72.6232 39.6689L69.9192 51.256ZM58.0834 59.9648L51.2001 55.0309L59.3138 45.8728L64.1932 49.3812L58.0834 59.9648ZM72.9202 27.9516L62.8085 28.1247L62.6137 25.6528L72.9202 27.9516ZM63.1749 22.8173L64.2491 20.9387L72.9067 27.3292L63.1749 22.8173ZM72.8604 27.6346L62.6175 25.3494L63.0785 23.0993L72.8604 27.6346ZM51.2754 70.3111L42.803 64.2472L50.8067 55.4704L57.771 60.4685L51.2754 70.3111ZM73.9963 27.0006L71.3175 18.1946L73.7861 18.6535L73.9963 27.0006ZM62.0158 25.5595L62.2222 28.1713L50.3728 29.8497L49.9909 24.7096L62.0158 25.5595ZM77.6549 13.846L82.2508 17.156L79.4003 21.1681L76.9336 19.3867L77.6549 13.846ZM49.4008 24.7076L49.7923 29.9644L38.0837 33.0022L37.5649 25.5925L49.4008 24.7076ZM60.2492 92.2892L49.6457 90.5311L55.0342 84.2649L65.3851 86.0094L60.2994 92.2833L60.2492 92.2892ZM91.4908 32.3138L91.9344 37.3041L84.7001 32.3021L84.7021 32.2943L84.4803 29.7194L91.485 32.3001L91.4908 32.3138ZM72.0581 11.31L73.6936 18.039L71.0726 17.545L71.0591 17.5469L67.009 10.3609L72.0523 11.308L72.0581 11.31ZM66.631 10.289L70.7351 17.5722L68.3185 17.7628L68.2857 17.7764L61.8403 10.6488L66.6136 10.287L66.631 10.289ZM36.9824 25.684L37.507 33.1831L26.8572 37.3274L26.2574 28.2063L36.9824 25.684ZM25.6808 28.4067L26.2844 37.588L17.5054 42.4792L16.8709 32.3254L25.6808 28.4067ZM43.7692 94.3798L33.6826 90.0916L38.2804 86.4062L48.8087 90.8986L43.8271 94.3895L43.7692 94.3798ZM54.0507 5.86459L60.9377 10.2637L56.66 11.9382L56.6331 11.9615L47.9852 8.20028L53.9446 5.87234L54.0507 5.86459ZM47.5936 8.35392L56.3862 12.1715L52.961 15.0984L42.7393 12.4457L47.5551 8.36946L47.5936 8.35392ZM38.4462 18.5699L36.9786 25.3806L26.3095 27.8932L28.1301 19.6201L38.4462 18.5699ZM44.2437 94.4576L49.1288 91.0348L49.1404 91.0387L59.6475 92.789L54.4576 96.0776L54.2319 96.101L44.2437 94.4576ZM79.356 87.3436L71.2095 90.8928L75.7553 85.037L75.8324 85.0293L83.8651 81.5617L79.8941 86.8515L79.356 87.3436ZM84.8892 80.2062L87.3346 72.3998L87.4349 72.357L93.0472 67.2364L91.2806 74.1131L91.0318 74.576L84.8892 80.2062ZM93.4638 65.7564L92.7829 57.3043L92.8485 57.244L95.861 51.7014L97.132 58.759L97.0741 59.0682L93.4638 65.7564ZM96.2313 36.3375L96.8562 43.2532L92.5419 37.8175L92.5612 37.7203L92.1176 32.7319L96.1754 36.1742L96.2313 36.3375ZM38.749 7.18704L46.8511 8.19055L42.0624 12.2454L42.0238 12.2785L41.9987 12.3193L32.7395 12.1599L38.5716 7.25511L38.749 7.18704ZM18.4195 18.6808L18.8535 18.319L22.6683 15.5166L18.4388 22.6151L18.4022 22.7765L12.8015 26.9908L17.1158 19.7737L18.4195 18.6808ZM29.6499 91.2954L27.484 89.8309L21.3433 85.4493L23.6094 83.699L32.7838 90.2549L29.7231 91.3265L29.6499 91.2954ZM86.272 80.9958L81.9538 84.9592L81.0801 85.7605L84.4109 81.3264L84.6577 81.2194L89.1861 77.0692L86.272 80.9958ZM95.3962 66.4721L93.4657 70.0563L91.8611 73.0357L93.4426 66.8746L93.6142 66.7191L96.5919 61.2017L95.3962 66.4721ZM89.215 21.4307L93.2593 28.1013L90.1986 26.7166L90.1755 26.6466L87.1553 21.6485L89.2093 21.4268L89.215 21.4307ZM68.8817 6.78252L69.036 6.85059L71.6936 10.6449L66.6464 9.68998L66.523 9.6997L61.9194 5.46784L68.8817 6.78252ZM56.6466 3.83228L60.012 4.82994L53.8578 5.28503L53.6283 5.37448L47.8579 4.1123L55.2541 3.56973L56.6466 3.83228ZM30.6354 9.12598L31.5727 8.76233L37.5302 7.35817L31.889 12.1035L31.8138 12.2299L24.4445 14.3147L30.6354 9.12598ZM29.3471 91.8049L38.6526 95.7606L48.1298 97.3242L54.2146 96.6999L54.2512 96.6961H54.2532L64.2086 95.6323L72.8469 91.8632C72.8488 91.8632 72.8488 91.8633 72.8488 91.8613L79.6511 87.8628L79.68 87.8492L86.6885 81.4158L91.485 74.963L91.5004 74.9475L95.9324 66.7191C95.9555 66.6763 95.9632 66.6276 95.9652 66.581L97.6334 59.2763L97.6354 59.2685L97.645 59.2258V59.2238L99.2496 50.5812L99.2573 50.5403L98.4048 41.1684C98.401 41.1256 98.3875 41.0848 98.3682 41.0497L96.7983 36.1761L94.1484 28.4436L89.701 21.0962L83.7706 14.6822L76.7465 9.61413L69.0861 6.22438H69.0823L69.063 6.21465L64.766 4.76772L64.7409 4.76187C64.7371 4.76187 64.7332 4.758 64.7274 4.758L55.2869 2.97266L46.2976 3.63196L39.1907 5.17613L39.1637 5.18585C39.1579 5.1878 39.1521 5.18778 39.1463 5.18973L30.4521 8.562L30.3789 8.58924V8.59117L30.3345 8.60869L30.1918 8.72731L23.9334 13.2937C23.9315 13.2937 23.9315 13.2937 23.9315 13.2956L20.7127 15.9911L16.6722 19.375L16.6645 19.3809L16.6259 19.445L12.518 26.2596L7.7929 34.1632L7.76781 34.2041L5.60584 43.7083L5.5962 43.7491L5.59812 43.7783L4.90576 50.2369L5.44383 59.4961L5.44577 59.533L8.42934 68.9614L13.6848 77.9269L14.4659 79.0782L20.2363 85.3793L27.1504 90.3191L29.3471 91.8049Z"/>
</mask>
<path d="M6.20563 54.1615L6.20757 54.1985L6.30014 54.4921L5.90286 57.2751L5.49591 50.2525L5.80643 47.3392L6.20563 54.1615ZM38.2688 6.73583L38.0335 6.93422L33.5746 7.98635L33.7019 7.93579L39.3373 5.75178L42.7258 5.01276L38.2688 6.73583ZM61.2482 4.73661L60.8471 4.76772L59.5376 4.37876L64.6002 5.33559L64.849 5.42116L61.2482 4.73661ZM43.3989 94.866L43.6072 94.9535L51.9832 96.3324L48.1472 96.7272L40.1299 95.4106L43.3989 94.866ZM38.8493 95.2005L30.1281 91.4976L33.0789 90.465L33.104 90.4824L42.8917 94.6501L39.2215 95.2608L38.8493 95.2005ZM14.1843 77.6138L15.6771 75.0778L23.3896 83.4968L21.0926 85.2704L20.865 85.109L14.7263 78.4111L14.1843 77.6138ZM9.84493 65.278L15.4726 74.8502L14.0146 77.324L8.97899 68.7494L8.93462 68.6074L9.84493 65.278ZM9.56914 64.7937L9.57878 64.8248L9.64436 64.9357L8.77263 68.094L6.02822 59.4241L5.98965 58.7532L6.50651 55.1378L9.56914 64.7937ZM23.0559 14.8651L22.4195 15.3338L23.135 14.7328L23.0559 14.8651ZM46.3844 4.21927L46.8184 4.18816L53.1288 5.56895L47.2523 7.85215L47.1597 7.92994L39.3315 6.95949L46.3844 4.21927ZM86.9798 21.3704L82.787 16.8312L83.5256 15.2871L88.9585 21.1545L86.9798 21.3704ZM95.9883 35.6276L92.081 32.3118L92.0732 32.2243L90.3298 27.1017L93.5313 28.5486L93.6026 28.6673L95.1204 33.0955L95.9883 35.6276ZM97.8224 41.2539L98.4319 47.9557L97.4521 44.2664L97.5042 43.9961L97.5119 43.9553L97.051 38.8696L97.8224 41.2539ZM97.2843 57.9422L96.0847 51.2871L96.1696 51.1315L97.3268 44.9393L98.59 49.7041L98.6633 50.5112L97.2843 57.9422ZM72.5981 91.3265L67.2019 93.6797L70.3108 91.8205L70.5981 91.7913L70.6425 91.7855L75.1574 89.8193L72.5981 91.3265ZM55.123 96.0057L60.0853 92.8629L60.2338 92.8882L69.6107 91.8944L65.0669 94.6112L64.0563 95.0508L55.123 96.0057ZM9.49392 38.3251L10.1014 48.4711L10.1034 48.508L10.1304 48.5877L6.75723 53.5081L6.18829 43.7997L6.26735 43.4555L9.49392 38.3251ZM11.303 29.4413L9.46115 37.5783L9.4515 37.6191L9.46499 37.833L6.46408 42.592L8.3194 34.4297L11.303 29.4413ZM27.6017 19.3478L27.5785 19.3886L27.565 19.445L19.2681 22.3739L23.6981 14.939L23.8891 14.7795L31.5958 12.5994L27.6017 19.3478ZM41.8271 12.613L38.5157 18.2665L28.3133 19.3031L32.3422 12.4924L32.3923 12.4516L41.8271 12.613ZM61.3813 10.0906L61.2733 10.1334L54.5424 5.82764L61.2154 5.33365L61.3717 5.36475L66.1276 9.72888L61.3813 10.0906ZM77.2885 12.9767L72.2568 10.7518L72.1082 10.7227L69.5567 7.08009L76.4303 10.114L76.5113 10.1742L77.2885 12.9767ZM82.5497 16.6504L77.734 13.1731L77.6376 13.1303L76.8931 10.4484L83.3038 15.0673L82.5497 16.6504ZM93.1455 66.3476L87.4369 71.5538L87.7358 61.8629L87.757 61.8551L92.5072 57.5532L93.2072 66.2329L93.1455 66.3476ZM84.3356 80.7138L76.139 84.2669L79.4794 75.7604L86.9778 72.5515L84.4571 80.6029L84.3356 80.7138ZM13.625 59.5564L13.6327 59.5778L10.0146 64.2492L6.79002 54.0896L6.78422 53.9865L10.2403 48.9378L13.625 59.5564ZM16.2865 32.2282L16.2788 32.2709L16.2826 32.341L10.1651 37.129L12.2518 27.9088L12.4003 27.6637L18.3038 23.2219L16.2865 32.2282ZM25.6692 28.0605L25.6615 28.0936L16.9499 31.9656L18.9923 22.8387L19.0309 22.7726L27.4898 19.7854L25.6692 28.0605ZM96.9179 43.9261L95.7087 50.3984L91.5622 42.8876L91.5679 42.8778L92.4686 38.1987L96.9044 43.788L96.9179 43.9261ZM89.1996 47.1933L89.2054 47.1875L91.3943 43.1929L95.6219 50.8534L95.6084 50.9293L92.5747 56.5147L89.1996 47.1933ZM92.3818 56.8706L87.6586 61.1453L85.5912 50.4275L88.9624 47.4053L92.3876 56.8609L92.3818 56.8706ZM87.1128 71.8513L79.6433 75.0603L81.2672 64.6109L87.4369 61.9913L87.1341 71.83L87.1128 71.8513ZM75.7282 84.4439L66.091 85.4415L70.4053 76.6764L79.1477 75.7993L75.7649 84.4283L75.7282 84.4439ZM70.4921 91.2059L60.7044 92.2405L65.7188 86.0658L65.7573 86.0736L75.3483 85.0798L70.6637 91.1301L70.4921 91.2059ZM28.3191 79.3019L38.02 86.2389L33.3875 89.9593L24.0665 83.3062L28.3191 79.3019ZM19.9586 70.2274L28.0973 79.1054L23.8409 83.1136L16.0261 74.5916L19.9586 70.2274ZM13.7909 59.852L19.7676 69.9999L15.8545 74.3407L10.1246 64.5895L13.7909 59.852ZM16.9384 42.8467L10.6646 48.0374L10.0436 37.6697L10.0629 37.5861L16.3039 32.693L16.9384 42.8467ZM50.4133 19.6317L49.4104 24.412L37.5996 25.295L39.0499 18.5621L50.4133 19.6317ZM50.4962 19.3439L39.1907 18.2801L42.4713 12.683L52.8009 15.361L50.4962 19.3439ZM77.383 13.6593L76.654 19.2603L74.0446 18.1051L74.0099 18.0993L72.3956 11.4597L77.383 13.6593ZM81.7185 23.6225L79.6298 21.3568L82.4688 17.3563L86.3607 21.561L81.7185 23.6225ZM83.435 26.4308L81.8921 23.8694L86.5535 21.7924L89.4619 26.5941L83.435 26.4308ZM84.4437 29.3907L83.5488 26.7302L89.6335 26.8839L91.3654 31.9501L84.4437 29.3907ZM91.9672 37.6891L91.0935 42.2963L84.1717 34.9606L84.6365 32.6191L91.9672 37.6794V37.6891ZM81.3 63.9536L80.9818 52.3568L85.3192 50.5559L87.4021 61.3631L81.3 63.9536ZM79.3309 75.1847L70.6386 76.056L73.8112 65.3382L80.9644 64.6498L79.3309 75.1847ZM65.7515 85.4707L55.4103 83.734L60.7545 75.0291L70.1005 76.6316L65.7515 85.4707ZM17.0329 43.1501L20.3771 53.5645L14.0995 59.1032L10.6877 48.4011L17.0329 43.1501ZM26.3635 37.8797L29.4049 47.2692L20.8747 53.1852L17.5382 42.7962L26.3635 37.8797ZM37.5841 33.4709L40.0836 41.1353L29.9199 46.9483L26.8996 37.6269L37.5841 33.4709ZM65.8441 18.7371L57.2541 12.3407L61.4681 10.6779L67.9906 17.8912L65.8441 18.7371ZM88.8717 46.571L82.9355 37.2321L84.0367 35.2484L91.0241 42.6464L88.8717 46.571ZM73.9424 64.7295L75.6781 52.8857L80.6925 52.4248L81.0107 64.0488L73.9424 64.7295ZM70.3301 76.0676L61.04 74.4846L65.8827 63.9749L73.5161 65.3071L70.3301 76.0676ZM55.1075 83.6679L44.8377 79.2766L51.1905 70.9412L60.4691 74.9338L55.1075 83.6679ZM44.4481 79.7472L54.7411 84.156L49.314 90.4708L38.7413 85.9647L44.4481 79.7472ZM20.5179 53.8329L26.3693 63.7338L20.1958 69.5662L14.2075 59.3969L20.5179 53.8329ZM29.5438 47.5317L34.8282 56.4544L26.8167 63.3332L20.9865 53.4653L29.5438 47.5317ZM40.2167 41.3979L44.5445 48.6772L35.2872 56.0733L30.0375 47.2206L40.2167 41.3979ZM49.8617 30.2503L51.6283 35.6199L40.614 40.8592L38.1357 33.2939L49.8617 30.2503ZM62.5192 22.8912L62.0351 25.2639L50.0102 24.4159L50.9919 19.7387L62.5192 22.8912ZM63.7439 20.6314L62.6156 22.6092L51.1076 19.4645L53.3641 15.5652L63.7439 20.6314ZM63.9155 20.3863L53.582 15.3455L56.9397 12.4749L65.605 18.9277L63.9155 20.3863ZM74.2953 27.1678L74.0831 18.7702L76.5325 19.8476L74.2953 27.1678ZM75.302 28.3833L83.8747 29.5541L84.0849 31.987L75.302 28.3833ZM81.0473 38.9299L82.7252 37.4441L88.7001 46.8472L85.4002 49.8052L81.0473 38.9299ZM73.6453 64.7295L66.1026 63.4187L70.0388 51.9095L75.3849 52.8643L73.6453 64.7295ZM60.7507 74.4107L51.5357 70.4531L58.0294 60.6124L65.5992 63.8874L60.7507 74.4107ZM44.5715 79.1385L35.1329 72.3901L42.4018 64.679L50.934 70.7934L44.5715 79.1385ZM34.7221 72.816L44.1896 79.5936L38.4655 85.8305L28.7434 78.8857L34.7221 72.816ZM26.5544 63.9633L34.5003 72.6215L28.5197 78.6931L20.3674 69.8093L26.5544 63.9633ZM35.0114 56.6859L42.1781 64.4864L34.9092 72.1956L26.9903 63.5724L35.0114 56.6859ZM44.7277 48.9106L50.583 55.2778L42.5793 64.0508L35.4627 56.3125L44.7277 48.9106ZM51.7575 35.8844L54.8009 40.9836L45.0151 48.3155L40.7355 41.1295L51.7575 35.8844ZM73.0687 27.0823L64.442 20.7131L66.0485 19.3245L73.0687 27.0823ZM73.3348 26.9344L66.3205 19.1844L68.3532 18.3735L73.3348 26.9344ZM73.6608 26.9092L68.6695 18.3307L70.9954 18.1459L73.6608 26.9092ZM74.5402 27.3681L76.789 20.011L79.0493 21.6388L74.5402 27.3681ZM74.7562 27.5743L79.2692 21.8371L81.1785 23.9006L74.7562 27.5743ZM74.9626 27.796L81.3656 24.1359L82.7889 26.4891L74.9626 27.796ZM82.9393 26.7652L83.7821 29.2449L75.1574 28.0644L82.9393 26.7652ZM75.3464 28.7217L84.0984 32.3138L83.6664 34.5463L75.3464 28.7217ZM78.6366 39.947L80.7889 39.0719L85.1572 49.9822L80.9123 51.7597L78.6366 39.947ZM65.821 63.339L58.3399 60.1087L64.4536 49.5212L69.7553 51.8297L65.821 63.339ZM54.9822 41.217L59.0901 45.6803L50.9784 54.8364L45.1906 48.5508L54.9822 41.217ZM62.2858 28.4631L63.1711 31.1372L52.1722 35.3865L50.4364 30.1395L62.2858 28.4631ZM75.2692 29.029L83.5854 34.8478L82.5401 36.7323L75.2692 29.029ZM75.8594 40.2427L78.3512 40.0248L80.6288 51.8355L75.7225 52.2848L75.8594 40.2427ZM72.9067 39.7428L75.5682 40.231L75.4312 52.2712L70.1989 51.3435L72.9067 39.7428ZM63.2984 31.4055L64.82 33.9532L55.2792 40.6374L52.2995 35.6549L63.2984 31.4055ZM63.7284 30.9485L62.8837 28.4203L73.059 28.2452L63.7284 30.9485ZM80.5209 38.5429L78.4765 39.385L74.8006 29.3674L80.5209 38.5429ZM75.0764 29.2526L82.3646 36.9735L80.7696 38.3873L75.0764 29.2526ZM64.9994 34.1866L67.0553 36.4211L59.4797 45.233L55.4585 40.8728L64.9994 34.1866ZM65.3099 33.6226L63.8654 31.2169L73.2423 28.502L65.3099 33.6226ZM75.8266 39.6495L74.4862 29.3674L78.1853 39.4434L75.8266 39.6495ZM67.4391 35.966L65.4912 33.8579L73.4428 28.7236L67.4391 35.966ZM74.1776 29.2702L75.5277 39.6203L73.0089 39.1672L74.1776 29.2702ZM70.2221 37.975L73.8999 29.1126L72.7235 39.068L70.2221 37.975ZM69.9675 37.8214L67.6589 36.1625L73.6588 28.9259L69.9675 37.8214ZM64.4767 48.8561L59.7015 45.4275L67.279 36.6117L69.7187 38.3698L64.4767 48.8561ZM69.9192 51.256L64.7313 49.0039L69.9791 38.5079L72.6232 39.6689L69.9192 51.256ZM58.0834 59.9648L51.2001 55.0309L59.3138 45.8728L64.1932 49.3812L58.0834 59.9648ZM72.9202 27.9516L62.8085 28.1247L62.6137 25.6528L72.9202 27.9516ZM63.1749 22.8173L64.2491 20.9387L72.9067 27.3292L63.1749 22.8173ZM72.8604 27.6346L62.6175 25.3494L63.0785 23.0993L72.8604 27.6346ZM51.2754 70.3111L42.803 64.2472L50.8067 55.4704L57.771 60.4685L51.2754 70.3111ZM73.9963 27.0006L71.3175 18.1946L73.7861 18.6535L73.9963 27.0006ZM62.0158 25.5595L62.2222 28.1713L50.3728 29.8497L49.9909 24.7096L62.0158 25.5595ZM77.6549 13.846L82.2508 17.156L79.4003 21.1681L76.9336 19.3867L77.6549 13.846ZM49.4008 24.7076L49.7923 29.9644L38.0837 33.0022L37.5649 25.5925L49.4008 24.7076ZM60.2492 92.2892L49.6457 90.5311L55.0342 84.2649L65.3851 86.0094L60.2994 92.2833L60.2492 92.2892ZM91.4908 32.3138L91.9344 37.3041L84.7001 32.3021L84.7021 32.2943L84.4803 29.7194L91.485 32.3001L91.4908 32.3138ZM72.0581 11.31L73.6936 18.039L71.0726 17.545L71.0591 17.5469L67.009 10.3609L72.0523 11.308L72.0581 11.31ZM66.631 10.289L70.7351 17.5722L68.3185 17.7628L68.2857 17.7764L61.8403 10.6488L66.6136 10.287L66.631 10.289ZM36.9824 25.684L37.507 33.1831L26.8572 37.3274L26.2574 28.2063L36.9824 25.684ZM25.6808 28.4067L26.2844 37.588L17.5054 42.4792L16.8709 32.3254L25.6808 28.4067ZM43.7692 94.3798L33.6826 90.0916L38.2804 86.4062L48.8087 90.8986L43.8271 94.3895L43.7692 94.3798ZM54.0507 5.86459L60.9377 10.2637L56.66 11.9382L56.6331 11.9615L47.9852 8.20028L53.9446 5.87234L54.0507 5.86459ZM47.5936 8.35392L56.3862 12.1715L52.961 15.0984L42.7393 12.4457L47.5551 8.36946L47.5936 8.35392ZM38.4462 18.5699L36.9786 25.3806L26.3095 27.8932L28.1301 19.6201L38.4462 18.5699ZM44.2437 94.4576L49.1288 91.0348L49.1404 91.0387L59.6475 92.789L54.4576 96.0776L54.2319 96.101L44.2437 94.4576ZM79.356 87.3436L71.2095 90.8928L75.7553 85.037L75.8324 85.0293L83.8651 81.5617L79.8941 86.8515L79.356 87.3436ZM84.8892 80.2062L87.3346 72.3998L87.4349 72.357L93.0472 67.2364L91.2806 74.1131L91.0318 74.576L84.8892 80.2062ZM93.4638 65.7564L92.7829 57.3043L92.8485 57.244L95.861 51.7014L97.132 58.759L97.0741 59.0682L93.4638 65.7564ZM96.2313 36.3375L96.8562 43.2532L92.5419 37.8175L92.5612 37.7203L92.1176 32.7319L96.1754 36.1742L96.2313 36.3375ZM38.749 7.18704L46.8511 8.19055L42.0624 12.2454L42.0238 12.2785L41.9987 12.3193L32.7395 12.1599L38.5716 7.25511L38.749 7.18704ZM18.4195 18.6808L18.8535 18.319L22.6683 15.5166L18.4388 22.6151L18.4022 22.7765L12.8015 26.9908L17.1158 19.7737L18.4195 18.6808ZM29.6499 91.2954L27.484 89.8309L21.3433 85.4493L23.6094 83.699L32.7838 90.2549L29.7231 91.3265L29.6499 91.2954ZM86.272 80.9958L81.9538 84.9592L81.0801 85.7605L84.4109 81.3264L84.6577 81.2194L89.1861 77.0692L86.272 80.9958ZM95.3962 66.4721L93.4657 70.0563L91.8611 73.0357L93.4426 66.8746L93.6142 66.7191L96.5919 61.2017L95.3962 66.4721ZM89.215 21.4307L93.2593 28.1013L90.1986 26.7166L90.1755 26.6466L87.1553 21.6485L89.2093 21.4268L89.215 21.4307ZM68.8817 6.78252L69.036 6.85059L71.6936 10.6449L66.6464 9.68998L66.523 9.6997L61.9194 5.46784L68.8817 6.78252ZM56.6466 3.83228L60.012 4.82994L53.8578 5.28503L53.6283 5.37448L47.8579 4.1123L55.2541 3.56973L56.6466 3.83228ZM30.6354 9.12598L31.5727 8.76233L37.5302 7.35817L31.889 12.1035L31.8138 12.2299L24.4445 14.3147L30.6354 9.12598ZM29.3471 91.8049L38.6526 95.7606L48.1298 97.3242L54.2146 96.6999L54.2512 96.6961H54.2532L64.2086 95.6323L72.8469 91.8632C72.8488 91.8632 72.8488 91.8633 72.8488 91.8613L79.6511 87.8628L79.68 87.8492L86.6885 81.4158L91.485 74.963L91.5004 74.9475L95.9324 66.7191C95.9555 66.6763 95.9632 66.6276 95.9652 66.581L97.6334 59.2763L97.6354 59.2685L97.645 59.2258V59.2238L99.2496 50.5812L99.2573 50.5403L98.4048 41.1684C98.401 41.1256 98.3875 41.0848 98.3682 41.0497L96.7983 36.1761L94.1484 28.4436L89.701 21.0962L83.7706 14.6822L76.7465 9.61413L69.0861 6.22438H69.0823L69.063 6.21465L64.766 4.76772L64.7409 4.76187C64.7371 4.76187 64.7332 4.758 64.7274 4.758L55.2869 2.97266L46.2976 3.63196L39.1907 5.17613L39.1637 5.18585C39.1579 5.1878 39.1521 5.18778 39.1463 5.18973L30.4521 8.562L30.3789 8.58924V8.59117L30.3345 8.60869L30.1918 8.72731L23.9334 13.2937C23.9315 13.2937 23.9315 13.2937 23.9315 13.2956L20.7127 15.9911L16.6722 19.375L16.6645 19.3809L16.6259 19.445L12.518 26.2596L7.7929 34.1632L7.76781 34.2041L5.60584 43.7083L5.5962 43.7491L5.59812 43.7783L4.90576 50.2369L5.44383 59.4961L5.44577 59.533L8.42934 68.9614L13.6848 77.9269L14.4659 79.0782L20.2363 85.3793L27.1504 90.3191L29.3471 91.8049Z" fill="url(#paint0_linear_1358_4548)" stroke="url(#paint1_radial_1358_4548)" stroke-width="4" mask="url(#path-2-inside-1_1358_4548)"/>
<defs>
<linearGradient id="paint0_linear_1358_4548" x1="-21.4807" y1="139.702" x2="73.6705" y2="26.1608" gradientUnits="userSpaceOnUse">
<stop offset="0.464541" stop-color="white" stop-opacity="0"/>
<stop offset="0.95" stop-color="white" stop-opacity="0.5"/>
</linearGradient>
<radialGradient id="paint1_radial_1358_4548" cx="0" cy="0" r="1" gradientUnits="userSpaceOnUse" gradientTransform="translate(52.0815 50.1484) rotate(143.705) scale(58.532)">
<stop stop-color="white" stop-opacity="0"/>
<stop offset="1" stop-color="white"/>
</radialGradient>
</defs>
</svg>
