<svg width="39" height="36" viewBox="0 0 39 36" fill="none" xmlns="http://www.w3.org/2000/svg">
<path d="M26.5737 17.4763L15.806 24.3867C15.6014 24.5181 15.3404 24.5237 15.1303 24.4013L1.62989 16.5382C1.21159 16.2945 1.19872 15.6948 1.60617 15.4335L23.6238 1.31043C23.8284 1.17922 24.0892 1.17357 24.2992 1.29581L37.7994 9.15281C38.2178 9.39633 38.2309 9.99611 37.8234 10.2576L31.4668 14.3362M26.5802 22.9647L15.8059 29.8754C15.6013 30.0066 15.3405 30.0122 15.1305 29.89L1.62971 22.0327C1.21142 21.7892 1.19825 21.1897 1.60545 20.9281L5.20236 18.6175M34.2273 12.5683L37.7991 14.6475C38.2176 14.8912 38.2304 15.4911 37.8228 15.7524L31.4079 19.8643M34.489 17.8853L37.842 19.9632C38.2469 20.2141 38.2515 20.8015 37.8506 21.0587L15.806 35.2053C15.6014 35.3366 15.3404 35.3423 15.1303 35.2199L1.62988 27.3567C1.21159 27.1131 1.19871 26.5134 1.60616 26.252L5.06499 24.0334M16.9991 5.9797L31.0862 14.1819C31.2854 14.2979 31.4079 14.511 31.4079 14.7415V24.834C31.4079 25.0545 31.2958 25.2598 31.1103 25.3789L27.5778 27.6476C27.1468 27.9244 26.5802 27.6149 26.5802 27.1027V17.8484C26.5802 17.618 26.4578 17.4049 26.2587 17.2889L12.7432 9.41346C12.3251 9.16985 12.3121 8.5705 12.7192 8.30903L16.3233 5.99444C16.5279 5.86302 16.7889 5.85733 16.9991 5.9797Z" stroke="#3CC35E" stroke-linecap="round" stroke-linejoin="round"/>
</svg>
