<svg width="43" height="41" viewBox="0 0 43 41" fill="none" xmlns="http://www.w3.org/2000/svg">
<path d="M29.2082 6.60546C29.2082 9.64788 22.8298 12.1142 14.9615 12.1142C7.0933 12.1142 0.714844 9.64788 0.714844 6.60546C0.714844 3.56305 7.0933 1.09668 14.9615 1.09668C22.8298 1.09668 29.2082 3.56305 29.2082 6.60546ZM29.2082 6.60546V14.8732M0.71487 6.61462V16.0152C0.71487 19.0573 7.05879 21.4965 14.9615 21.4965C16.0309 21.4965 17.064 21.4508 18.0609 21.3595M0.71487 14.8823V25.4248C0.71487 28.467 7.05879 30.9062 14.9615 30.9062C15.6503 30.9062 16.3209 30.888 16.9734 30.8514M0.71487 23.5886V34.1768C0.71487 37.219 7.05879 39.6582 14.9615 39.6582C17.7105 39.6822 20.4513 39.3537 23.118 38.6807M26.009 30.7235C26.009 31.1478 26.0922 31.5679 26.2535 31.9598C26.4148 32.3516 26.6513 32.7075 26.9494 33.0071C27.2474 33.3067 27.601 33.5441 27.9902 33.7056C28.3794 33.8671 28.7964 33.9496 29.2173 33.9484C30.0657 33.9484 30.8795 33.6086 31.4794 33.0039C32.0794 32.3991 32.4165 31.5788 32.4165 30.7235C32.3527 30.1214 32.1275 29.5483 31.7651 29.0654C31.4026 28.5826 30.9166 28.2083 30.3592 27.9828C28.746 27.0693 26.009 26.713 26.009 24.3286C26.0078 23.9035 26.09 23.4825 26.2508 23.0896C26.4117 22.6967 26.6479 22.3397 26.946 22.0391C27.2442 21.7386 27.5984 21.5004 27.9882 21.3383C28.378 21.1762 28.7956 21.0934 29.2173 21.0946C29.6382 21.0946 30.055 21.1783 30.4437 21.3409C30.8324 21.5036 31.1856 21.742 31.4827 22.0424C31.7799 22.3428 32.0153 22.6993 32.1755 23.0917C32.3357 23.484 32.4176 23.9043 32.4165 24.3286M29.2082 21.0306V19.505M29.2082 35.4649V33.9484M41.7148 27.4895C41.7148 34.4523 36.1154 40.0967 29.2082 40.0967C22.301 40.0967 16.7016 34.4523 16.7016 27.4895C16.7016 20.5268 22.301 14.8823 29.2082 14.8823C36.1154 14.8823 41.7148 20.5268 41.7148 27.4895Z" stroke="#3CC35E" stroke-linecap="round" stroke-linejoin="round"/>
</svg>
